<mxfile host="app.diagrams.net" agent="Mozilla/5.0 (Windows NT 10.0; Win64; x64) AppleWebKit/537.36 (KHTML, like Gecko) Chrome/134.0.0.0 Safari/537.36 Edg/134.0.0.0" version="26.1.0" pages="8">
  <diagram id="onnsDDGCGnbuztYDNgA7" name="Architecture_general">
    <mxGraphModel grid="1" page="1" gridSize="10" guides="1" tooltips="1" connect="1" arrows="1" fold="1" pageScale="1" pageWidth="1100" pageHeight="850" math="0" shadow="0">
      <root>
        <mxCell id="0" />
        <mxCell id="1" parent="0" />
        <mxCell id="9XTSuc5vXoUHELjeOI1o-27" value="&lt;blockquote style=&quot;margin: 0 0 0 40px; border: none; padding: 0px;&quot;&gt;&lt;blockquote style=&quot;margin: 0 0 0 40px; border: none; padding: 0px;&quot;&gt;INTRANET&lt;/blockquote&gt;&lt;/blockquote&gt;" style="rounded=0;whiteSpace=wrap;html=1;fillColor=light-dark(#f0fff0, #002b00);strokeColor=none;verticalAlign=top;fontStyle=1;fontSize=14;fontColor=light-dark(#000000, #88b45c);align=left;" vertex="1" parent="1">
          <mxGeometry x="360" y="80" width="520" height="1000" as="geometry" />
        </mxCell>
        <mxCell id="9XTSuc5vXoUHELjeOI1o-26" value="INTERNET" style="rounded=0;whiteSpace=wrap;html=1;verticalAlign=top;fontStyle=1;fontSize=14;fillColor=light-dark(#fffafa, #ededed);strokeColor=none;fontColor=light-dark(#000000,#EDEDED);" vertex="1" parent="1">
          <mxGeometry x="620" y="80" width="260" height="510" as="geometry" />
        </mxCell>
        <mxCell id="TdqekV3uOiESmIX1Np2l-24" style="edgeStyle=orthogonalEdgeStyle;rounded=0;orthogonalLoop=1;jettySize=auto;html=1;entryX=0.25;entryY=0;entryDx=0;entryDy=0;exitX=0.25;exitY=1;exitDx=0;exitDy=0;strokeWidth=2;endArrow=open;endFill=0;startArrow=open;startFill=0;" edge="1" parent="1" source="TdqekV3uOiESmIX1Np2l-1">
          <mxGeometry relative="1" as="geometry">
            <mxPoint x="490" y="319.9999999999998" as="targetPoint" />
          </mxGeometry>
        </mxCell>
        <mxCell id="TdqekV3uOiESmIX1Np2l-25" style="edgeStyle=orthogonalEdgeStyle;rounded=0;orthogonalLoop=1;jettySize=auto;html=1;entryX=0.75;entryY=1;entryDx=0;entryDy=0;exitX=0.75;exitY=0;exitDx=0;exitDy=0;strokeWidth=2;endArrow=open;endFill=0;startArrow=open;startFill=0;" edge="1" parent="1" target="TdqekV3uOiESmIX1Np2l-1">
          <mxGeometry relative="1" as="geometry">
            <mxPoint x="750" y="319.9999999999998" as="sourcePoint" />
          </mxGeometry>
        </mxCell>
        <mxCell id="TdqekV3uOiESmIX1Np2l-12" value="" style="rounded=0;whiteSpace=wrap;html=1;fillColor=light-dark(#ebf3ff, #1d293b);strokeColor=#6c8ebf;" vertex="1" parent="1">
          <mxGeometry x="360" y="800" width="520" height="80" as="geometry" />
        </mxCell>
        <mxCell id="TdqekV3uOiESmIX1Np2l-14" value="Agentes de servicios" style="rounded=1;whiteSpace=wrap;html=1;fillColor=light-dark(#ebf3ff, #1d293b);strokeColor=#6c8ebf;fontStyle=1" vertex="1" parent="1">
          <mxGeometry x="640" y="825" width="200" height="30" as="geometry" />
        </mxCell>
        <mxCell id="TdqekV3uOiESmIX1Np2l-15" value="Componentes de acceso a datos" style="rounded=1;whiteSpace=wrap;html=1;fillColor=light-dark(#ebf3ff, #1d293b);strokeColor=#6c8ebf;fontStyle=1" vertex="1" parent="1">
          <mxGeometry x="400" y="825" width="200" height="30" as="geometry" />
        </mxCell>
        <mxCell id="TdqekV3uOiESmIX1Np2l-28" style="edgeStyle=orthogonalEdgeStyle;rounded=0;orthogonalLoop=1;jettySize=auto;html=1;entryX=0.25;entryY=0;entryDx=0;entryDy=0;strokeWidth=2;endArrow=open;endFill=0;" edge="1" parent="1" target="TdqekV3uOiESmIX1Np2l-12">
          <mxGeometry relative="1" as="geometry">
            <mxPoint x="490" y="760" as="sourcePoint" />
            <mxPoint x="500" y="730" as="targetPoint" />
          </mxGeometry>
        </mxCell>
        <mxCell id="TdqekV3uOiESmIX1Np2l-29" style="edgeStyle=orthogonalEdgeStyle;rounded=0;orthogonalLoop=1;jettySize=auto;html=1;entryX=0.75;entryY=1;entryDx=0;entryDy=0;exitX=0.75;exitY=0;exitDx=0;exitDy=0;strokeWidth=2;endArrow=open;endFill=0;" edge="1" parent="1" source="TdqekV3uOiESmIX1Np2l-12" target="b3QcKfxHHzgAnhLzsTik-12">
          <mxGeometry relative="1" as="geometry">
            <mxPoint x="760" y="730" as="sourcePoint" />
            <mxPoint x="750" y="760" as="targetPoint" />
          </mxGeometry>
        </mxCell>
        <mxCell id="TdqekV3uOiESmIX1Np2l-30" value="" style="rounded=0;whiteSpace=wrap;html=1;fillColor=#f5f5f5;strokeColor=#666666;fontColor=#333333;" vertex="1" parent="1">
          <mxGeometry x="920" y="320" width="150" height="560" as="geometry" />
        </mxCell>
        <mxCell id="TdqekV3uOiESmIX1Np2l-31" value="AdministraciÃ³n operacional" style="rounded=1;whiteSpace=wrap;html=1;fillColor=#f5f5f5;strokeColor=#666666;fontStyle=1;rotation=90;fontColor=#333333;" vertex="1" parent="1">
          <mxGeometry x="755" y="583.63" width="480" height="30.04" as="geometry" />
        </mxCell>
        <mxCell id="TdqekV3uOiESmIX1Np2l-33" value="Seguridad" style="rounded=1;whiteSpace=wrap;html=1;fillColor=#f5f5f5;strokeColor=#666666;fontStyle=1;rotation=90;fontColor=#333333;" vertex="1" parent="1">
          <mxGeometry x="800" y="584.29" width="482.12" height="29.38" as="geometry" />
        </mxCell>
        <mxCell id="TdqekV3uOiESmIX1Np2l-34" style="edgeStyle=orthogonalEdgeStyle;rounded=0;orthogonalLoop=1;jettySize=auto;html=1;entryX=0.808;entryY=0.995;entryDx=0;entryDy=0;strokeWidth=2;endArrow=open;endFill=0;startArrow=open;startFill=0;entryPerimeter=0;exitX=0.808;exitY=0.002;exitDx=0;exitDy=0;exitPerimeter=0;" edge="1" parent="1" source="yOm9J7MXX8bLzO9w5WH3-12" target="TdqekV3uOiESmIX1Np2l-12">
          <mxGeometry relative="1" as="geometry">
            <mxPoint x="780" y="920" as="sourcePoint" />
            <mxPoint x="760" y="770" as="targetPoint" />
          </mxGeometry>
        </mxCell>
        <mxCell id="TdqekV3uOiESmIX1Np2l-35" style="edgeStyle=orthogonalEdgeStyle;rounded=0;orthogonalLoop=1;jettySize=auto;html=1;entryX=0.5;entryY=1;entryDx=0;entryDy=0;strokeWidth=2;endArrow=open;endFill=0;startArrow=open;startFill=0;exitX=0.5;exitY=0;exitDx=0;exitDy=0;" edge="1" parent="1" source="yOm9J7MXX8bLzO9w5WH3-12" target="TdqekV3uOiESmIX1Np2l-12">
          <mxGeometry relative="1" as="geometry">
            <mxPoint x="620" y="920" as="sourcePoint" />
            <mxPoint x="810" y="927" as="targetPoint" />
          </mxGeometry>
        </mxCell>
        <object placeholders="1" c4Name="[Architecture] Portal de Clientes Cryoinfra - Arquitectura en capas de servicio" c4Type="ContainerDiagramTitle" c4Description="Arquitectura general" label="&lt;font style=&quot;font-size: 16px&quot;&gt;&lt;b&gt;&lt;div style=&quot;text-align: left&quot;&gt;%c4Name%&lt;/div&gt;&lt;/b&gt;&lt;/font&gt;&lt;div style=&quot;text-align: left&quot;&gt;%c4Description%&lt;/div&gt;" id="QLz1q41pmVsPlL5V_143-1">
          <mxCell style="text;html=1;strokeColor=none;fillColor=#f5f5f5;align=left;verticalAlign=top;whiteSpace=wrap;rounded=0;metaEdit=1;allowArrows=0;resizable=1;rotatable=0;connectable=0;recursiveResize=0;expand=0;pointerEvents=0;points=[[0.25,0,0],[0.5,0,0],[0.75,0,0],[1,0.25,0],[1,0.5,0],[1,0.75,0],[0.75,1,0],[0.5,1,0],[0.25,1,0],[0,0.75,0],[0,0.5,0],[0,0.25,0]];fontColor=#333333;" vertex="1" parent="1">
            <mxGeometry width="1100" height="40" as="geometry" />
          </mxCell>
        </object>
        <UserObject label="General" link="data:page/id,5f0bae14-7c28-e335-631c-24af17079c00" id="ywc3RzNOTetkVbzvp27Z-1">
          <mxCell style="fontColor=#0000EE;fontStyle=0;rounded=1;overflow=hidden;spacing=10;" vertex="1" parent="1">
            <mxGeometry x="1000" width="80" height="40" as="geometry" />
          </mxCell>
        </UserObject>
        <mxCell id="2Whvz-EQcoO1ibe-_Gla-3" value="" style="group" vertex="1" connectable="0" parent="1">
          <mxGeometry x="360" y="160" width="780" height="770" as="geometry" />
        </mxCell>
        <mxCell id="TdqekV3uOiESmIX1Np2l-1" value="" style="rounded=0;whiteSpace=wrap;html=1;verticalAlign=top;spacingTop=10;fillColor=light-dark(#fef7e1, #281d00);strokeColor=#d6b656;fontStyle=1;gradientColor=light-dark(#feebb4, #543300);" vertex="1" parent="2Whvz-EQcoO1ibe-_Gla-3">
          <mxGeometry width="520" height="120" as="geometry" />
        </mxCell>
        <mxCell id="TdqekV3uOiESmIX1Np2l-2" value="" style="verticalLabelPosition=bottom;html=1;verticalAlign=top;align=center;strokeColor=none;fillColor=#00BEF2;shape=mxgraph.azure.user;labelBorderColor=none;" vertex="1" parent="2Whvz-EQcoO1ibe-_Gla-3">
          <mxGeometry x="236.25" y="35" width="47.5" height="50" as="geometry" />
        </mxCell>
        <mxCell id="2Whvz-EQcoO1ibe-_Gla-1" value="" style="verticalLabelPosition=bottom;html=1;verticalAlign=top;align=center;strokeColor=none;fillColor=#00BEF2;shape=mxgraph.azure.user;" vertex="1" parent="2Whvz-EQcoO1ibe-_Gla-3">
          <mxGeometry x="210" y="45" width="37.5" height="40" as="geometry" />
        </mxCell>
        <mxCell id="2Whvz-EQcoO1ibe-_Gla-2" value="" style="verticalLabelPosition=bottom;html=1;verticalAlign=top;align=center;strokeColor=none;fillColor=#00BEF2;shape=mxgraph.azure.user;" vertex="1" parent="2Whvz-EQcoO1ibe-_Gla-3">
          <mxGeometry x="272.5" y="45" width="37.5" height="40" as="geometry" />
        </mxCell>
        <mxCell id="2Whvz-EQcoO1ibe-_Gla-10" style="edgeStyle=orthogonalEdgeStyle;rounded=0;orthogonalLoop=1;jettySize=auto;html=1;entryX=0.75;entryY=1;entryDx=0;entryDy=0;exitX=0.75;exitY=0;exitDx=0;exitDy=0;strokeWidth=2;endArrow=open;endFill=0;startArrow=open;startFill=0;" edge="1" parent="1" source="2Whvz-EQcoO1ibe-_Gla-4">
          <mxGeometry relative="1" as="geometry">
            <mxPoint x="760" y="730" as="sourcePoint" />
            <mxPoint x="750" y="439.9999999999998" as="targetPoint" />
          </mxGeometry>
        </mxCell>
        <mxCell id="2Whvz-EQcoO1ibe-_Gla-11" style="edgeStyle=orthogonalEdgeStyle;rounded=0;orthogonalLoop=1;jettySize=auto;html=1;exitX=0.25;exitY=1;exitDx=0;exitDy=0;strokeWidth=2;endArrow=open;endFill=0;entryX=0.25;entryY=0;entryDx=0;entryDy=0;startArrow=open;startFill=0;" edge="1" parent="1" target="2Whvz-EQcoO1ibe-_Gla-4">
          <mxGeometry relative="1" as="geometry">
            <mxPoint x="490" y="439.9999999999998" as="sourcePoint" />
            <mxPoint x="490" y="520" as="targetPoint" />
          </mxGeometry>
        </mxCell>
        <mxCell id="2Whvz-EQcoO1ibe-_Gla-13" value="Comunicaciones" style="rounded=1;whiteSpace=wrap;html=1;fillColor=#f5f5f5;strokeColor=#666666;fontStyle=1;rotation=90;fontColor=#333333;" vertex="1" parent="1">
          <mxGeometry x="710" y="584.8199999999999" width="480" height="30" as="geometry" />
        </mxCell>
        <mxCell id="2Whvz-EQcoO1ibe-_Gla-14" value="" style="shape=image;verticalLabelPosition=bottom;labelBackgroundColor=default;verticalAlign=top;aspect=fixed;imageAspect=0;image=https://www.simplilearn.com/ice9/free_resources_article_thumb/ASP.NET_logo.jpg;" vertex="1" parent="1">
          <mxGeometry x="46.41" y="352.75" width="64.66" height="55" as="geometry" />
        </mxCell>
        <mxCell id="2Whvz-EQcoO1ibe-_Gla-16" value="" style="shape=image;verticalLabelPosition=bottom;labelBackgroundColor=default;verticalAlign=top;aspect=fixed;imageAspect=0;image=https://reactor.fr/wp-content/uploads/2020/01/1200px-.NET_Core_Logo.svg_.png;" vertex="1" parent="1">
          <mxGeometry x="165" y="357.25" width="40" height="40" as="geometry" />
        </mxCell>
        <mxCell id="2Whvz-EQcoO1ibe-_Gla-18" value="" style="shape=image;verticalLabelPosition=bottom;labelBackgroundColor=default;verticalAlign=top;aspect=fixed;imageAspect=0;image=https://logospng.org/download/android/logo-android-4096.png;" vertex="1" parent="1">
          <mxGeometry x="111.07" y="352.25" width="50" height="50" as="geometry" />
        </mxCell>
        <mxCell id="9XTSuc5vXoUHELjeOI1o-2" value="" style="shape=image;verticalLabelPosition=bottom;labelBackgroundColor=default;verticalAlign=top;aspect=fixed;imageAspect=0;image=https://www.artofdata.com/wp-content/uploads/2019/06/signalr-logo.png;" vertex="1" parent="1">
          <mxGeometry x="255" y="515" width="52.81" height="50" as="geometry" />
        </mxCell>
        <mxCell id="9XTSuc5vXoUHELjeOI1o-7" value="" style="shape=image;verticalLabelPosition=bottom;labelBackgroundColor=default;verticalAlign=top;aspect=fixed;imageAspect=0;image=https://www.taskscape.com/img/netmaui-logo.png;" vertex="1" parent="1">
          <mxGeometry x="255.00000000000003" y="352.75" width="50" height="50" as="geometry" />
        </mxCell>
        <mxCell id="9XTSuc5vXoUHELjeOI1o-8" value="" style="shape=image;verticalLabelPosition=bottom;labelBackgroundColor=default;verticalAlign=top;aspect=fixed;imageAspect=0;image=https://www.ideematic.com/wp-content/uploads/2018/09/logo-xamarin-300x300.png;" vertex="1" parent="1">
          <mxGeometry x="210" y="354.75" width="45" height="45" as="geometry" />
        </mxCell>
        <mxCell id="9XTSuc5vXoUHELjeOI1o-10" value="" style="shape=image;verticalLabelPosition=bottom;labelBackgroundColor=default;verticalAlign=top;aspect=fixed;imageAspect=0;image=https://reactor.fr/wp-content/uploads/2020/01/1200px-.NET_Core_Logo.svg_.png;" vertex="1" parent="1">
          <mxGeometry x="210" y="520" width="40" height="40" as="geometry" />
        </mxCell>
        <mxCell id="9XTSuc5vXoUHELjeOI1o-14" value="" style="shape=image;verticalLabelPosition=bottom;labelBackgroundColor=default;verticalAlign=top;aspect=fixed;imageAspect=0;image=https://www.artofdata.com/wp-content/uploads/2019/06/signalr-logo.png;" vertex="1" parent="1">
          <mxGeometry x="253.59" y="675" width="52.81" height="50" as="geometry" />
        </mxCell>
        <mxCell id="9XTSuc5vXoUHELjeOI1o-15" value="" style="shape=image;verticalLabelPosition=bottom;labelBackgroundColor=default;verticalAlign=top;aspect=fixed;imageAspect=0;image=https://reactor.fr/wp-content/uploads/2020/01/1200px-.NET_Core_Logo.svg_.png;" vertex="1" parent="1">
          <mxGeometry x="210" y="680" width="40" height="40" as="geometry" />
        </mxCell>
        <mxCell id="9XTSuc5vXoUHELjeOI1o-17" value="" style="shape=image;verticalLabelPosition=bottom;labelBackgroundColor=default;verticalAlign=top;aspect=fixed;imageAspect=0;image=https://cdn-icons-png.flaticon.com/512/6378/6378011.png;" vertex="1" parent="1">
          <mxGeometry x="80.1" y="510" width="60" height="60" as="geometry" />
        </mxCell>
        <mxCell id="9XTSuc5vXoUHELjeOI1o-18" value="" style="shape=image;verticalLabelPosition=bottom;labelBackgroundColor=default;verticalAlign=top;aspect=fixed;imageAspect=0;image=https://image.opencart.com/original/60e85b27c7220.jpg;" vertex="1" parent="1">
          <mxGeometry x="149.32" y="674" width="52" height="52" as="geometry" />
        </mxCell>
        <mxCell id="9XTSuc5vXoUHELjeOI1o-20" value="" style="shape=image;verticalLabelPosition=bottom;labelBackgroundColor=default;verticalAlign=top;aspect=fixed;imageAspect=0;image=https://miro.medium.com/v2/resize:fit:400/1*zaeD78J_lNicIUootxqenA.png;" vertex="1" parent="1">
          <mxGeometry x="192.34" y="806.85" width="120" height="66.3" as="geometry" />
        </mxCell>
        <mxCell id="9XTSuc5vXoUHELjeOI1o-21" value="" style="shape=image;verticalLabelPosition=bottom;labelBackgroundColor=default;verticalAlign=top;aspect=fixed;imageAspect=0;image=https://static-00.iconduck.com/assets.00/sql-database-sql-azure-icon-976x1024-eobwqz2q.png;" vertex="1" parent="1">
          <mxGeometry x="135.63" y="810.25" width="56.71" height="59.5" as="geometry" />
        </mxCell>
        <mxCell id="9XTSuc5vXoUHELjeOI1o-30" value="" style="rounded=0;whiteSpace=wrap;html=1;verticalAlign=top;spacingTop=10;fillColor=light-dark(#fef7e1, #281d00);strokeColor=#d6b656;fontStyle=1;gradientColor=light-dark(#feebb4, #543300);" vertex="1" parent="1">
          <mxGeometry x="360" y="320" width="520" height="120" as="geometry" />
        </mxCell>
        <mxCell id="TdqekV3uOiESmIX1Np2l-4" value="Componentes de interfaz de usuario" style="rounded=1;whiteSpace=wrap;html=1;fillColor=light-dark(#fef9ec, #281d00);strokeColor=#d6b656;fontStyle=1" vertex="1" parent="1">
          <mxGeometry x="400" y="340" width="440" height="30" as="geometry" />
        </mxCell>
        <mxCell id="TdqekV3uOiESmIX1Np2l-5" value="Componentes de acceso a interfaces de servicio" style="rounded=1;whiteSpace=wrap;html=1;fillColor=light-dark(#fef9ec, #281d00);strokeColor=#d6b656;fontStyle=1" vertex="1" parent="1">
          <mxGeometry x="400" y="390" width="440" height="30" as="geometry" />
        </mxCell>
        <mxCell id="1yabr6cchl8G-7-hFBtq-1" value="Frontend" style="rounded=1;whiteSpace=wrap;html=1;fillColor=#f5f5f5;strokeColor=#666666;fontStyle=1;rotation=90;fontColor=#333333;" vertex="1" parent="1">
          <mxGeometry x="-121.15" y="280.53" width="282.81" height="40" as="geometry" />
        </mxCell>
        <mxCell id="1yabr6cchl8G-7-hFBtq-2" value="Backend" style="rounded=1;whiteSpace=wrap;html=1;fillColor=#f5f5f5;strokeColor=#666666;fontStyle=1;rotation=90;fontColor=#333333;" vertex="1" parent="1">
          <mxGeometry x="-119.53" y="598.94" width="279.57" height="40" as="geometry" />
        </mxCell>
        <mxCell id="b3QcKfxHHzgAnhLzsTik-1" value="Data" style="rounded=1;whiteSpace=wrap;html=1;fillColor=#f5f5f5;strokeColor=#666666;fontStyle=1;rotation=90;fontColor=#333333;" vertex="1" parent="1">
          <mxGeometry x="-119.59" y="919.43" width="280.16" height="40" as="geometry" />
        </mxCell>
        <mxCell id="b3QcKfxHHzgAnhLzsTik-3" value="" style="shape=image;verticalLabelPosition=bottom;labelBackgroundColor=default;verticalAlign=top;aspect=fixed;imageAspect=0;image=https://static-00.iconduck.com/assets.00/sql-database-generic-icon-380x512-ez505zus.png;" vertex="1" parent="1">
          <mxGeometry x="260.82" y="950" width="41.17" height="55.47" as="geometry" />
        </mxCell>
        <mxCell id="b3QcKfxHHzgAnhLzsTik-9" value="" style="shape=image;verticalLabelPosition=bottom;labelBackgroundColor=default;verticalAlign=top;aspect=fixed;imageAspect=0;image=https://startupcredits.org/wp-content/uploads/2023/12/MongoDB-Startup-Credits-logo.png;" vertex="1" parent="1">
          <mxGeometry x="192.34" y="950.5" width="55" height="55" as="geometry" />
        </mxCell>
        <mxCell id="b3QcKfxHHzgAnhLzsTik-10" value="" style="shape=image;verticalLabelPosition=bottom;labelBackgroundColor=default;verticalAlign=top;aspect=fixed;imageAspect=0;image=https://cdn-icons-png.flaticon.com/512/6378/6378011.png;" vertex="1" parent="1">
          <mxGeometry x="124" y="945.5" width="60" height="60" as="geometry" />
        </mxCell>
        <mxCell id="b3QcKfxHHzgAnhLzsTik-11" value="" style="shape=image;verticalLabelPosition=bottom;labelBackgroundColor=default;verticalAlign=top;aspect=fixed;imageAspect=0;image=https://cdn-icons-png.flaticon.com/512/337/337959.png;" vertex="1" parent="1">
          <mxGeometry x="60" y="947.73" width="55.53" height="55.53" as="geometry" />
        </mxCell>
        <mxCell id="yOm9J7MXX8bLzO9w5WH3-2" value="Usuarios" style="rounded=0;whiteSpace=wrap;html=1;fillColor=light-dark(#fdf7e1, #281d00);strokeColor=#d6b656;fontStyle=1;rotation=90;gradientColor=light-dark(#fbecb7, #543300);gradientDirection=east;" vertex="1" parent="1">
          <mxGeometry x="280.35" y="200" width="119.65" height="40" as="geometry" />
        </mxCell>
        <mxCell id="yOm9J7MXX8bLzO9w5WH3-4" value="Enlace" style="rounded=0;whiteSpace=wrap;html=1;fillColor=#f5f5f5;strokeColor=#666666;fontStyle=1;rotation=90;gradientColor=#b3b3b3;gradientDirection=east;" vertex="1" parent="1">
          <mxGeometry x="279.65" y="520" width="120" height="40" as="geometry" />
        </mxCell>
        <mxCell id="yOm9J7MXX8bLzO9w5WH3-6" value="PresentaciÃ³n" style="rounded=0;whiteSpace=wrap;html=1;fillColor=light-dark(#fdf7e1, #281d00);strokeColor=#d6b656;fontStyle=1;rotation=90;gradientColor=light-dark(#fbecb7, #543300);gradientDirection=east;" vertex="1" parent="1">
          <mxGeometry x="280.34999999999997" y="360" width="119.82" height="40" as="geometry" />
        </mxCell>
        <mxCell id="yOm9J7MXX8bLzO9w5WH3-7" value="Acceso a datos" style="rounded=0;whiteSpace=wrap;html=1;fillColor=light-dark(#ecf3ff, #1d293b);strokeColor=#6c8ebf;fontStyle=1;rotation=90;gradientDirection=east;" vertex="1" parent="1">
          <mxGeometry x="299.7" y="820" width="79.91" height="40" as="geometry" />
        </mxCell>
        <mxCell id="TdqekV3uOiESmIX1Np2l-36" style="edgeStyle=orthogonalEdgeStyle;rounded=0;orthogonalLoop=1;jettySize=auto;html=1;entryX=0.191;entryY=0.996;entryDx=0;entryDy=0;exitX=0.19;exitY=0.017;exitDx=0;exitDy=0;strokeWidth=2;endArrow=open;endFill=0;startArrow=open;startFill=0;entryPerimeter=0;exitPerimeter=0;" edge="1" parent="1" source="yOm9J7MXX8bLzO9w5WH3-12" target="TdqekV3uOiESmIX1Np2l-12">
          <mxGeometry relative="1" as="geometry">
            <mxPoint x="630" y="970" as="sourcePoint" />
            <mxPoint x="630" y="930" as="targetPoint" />
          </mxGeometry>
        </mxCell>
        <mxCell id="2Whvz-EQcoO1ibe-_Gla-12" value="" style="group" vertex="1" connectable="0" parent="1">
          <mxGeometry x="360" y="480" width="520" height="610" as="geometry" />
        </mxCell>
        <mxCell id="2Whvz-EQcoO1ibe-_Gla-4" value="" style="rounded=0;whiteSpace=wrap;html=1;fillColor=#f5f5f5;strokeColor=#666666;gradientColor=#b3b3b3;" vertex="1" parent="2Whvz-EQcoO1ibe-_Gla-12">
          <mxGeometry width="520" height="120" as="geometry" />
        </mxCell>
        <mxCell id="2Whvz-EQcoO1ibe-_Gla-6" value="API Gateway" style="rounded=1;whiteSpace=wrap;html=1;fillColor=#f5f5f5;strokeColor=#666666;fontStyle=1;gradientColor=#b3b3b3;" vertex="1" parent="2Whvz-EQcoO1ibe-_Gla-12">
          <mxGeometry x="40" y="20" width="440" height="30" as="geometry" />
        </mxCell>
        <mxCell id="2Whvz-EQcoO1ibe-_Gla-7" value="Websockets" style="rounded=1;whiteSpace=wrap;html=1;fillColor=#f5f5f5;strokeColor=#666666;fontStyle=1;gradientColor=#b3b3b3;" vertex="1" parent="2Whvz-EQcoO1ibe-_Gla-12">
          <mxGeometry x="280" y="65" width="200" height="30" as="geometry" />
        </mxCell>
        <mxCell id="2Whvz-EQcoO1ibe-_Gla-8" value="Proxy Reverse" style="rounded=1;whiteSpace=wrap;html=1;fillColor=#f5f5f5;strokeColor=#666666;fontStyle=1;gradientColor=#b3b3b3;" vertex="1" parent="2Whvz-EQcoO1ibe-_Gla-12">
          <mxGeometry x="40" y="65" width="200" height="30" as="geometry" />
        </mxCell>
        <mxCell id="b3QcKfxHHzgAnhLzsTik-12" value="" style="rounded=0;whiteSpace=wrap;html=1;fillColor=#f5f5f5;strokeColor=#666666;gradientColor=#b3b3b3;" vertex="1" parent="2Whvz-EQcoO1ibe-_Gla-12">
          <mxGeometry y="160" width="520" height="120" as="geometry" />
        </mxCell>
        <mxCell id="1yabr6cchl8G-7-hFBtq-4" style="edgeStyle=orthogonalEdgeStyle;rounded=0;orthogonalLoop=1;jettySize=auto;html=1;entryX=0.5;entryY=1;entryDx=0;entryDy=0;strokeWidth=2;endArrow=open;endFill=0;startArrow=open;startFill=0;exitX=0.5;exitY=0;exitDx=0;exitDy=0;" edge="1" parent="2Whvz-EQcoO1ibe-_Gla-12" source="b3QcKfxHHzgAnhLzsTik-12" target="2Whvz-EQcoO1ibe-_Gla-4">
          <mxGeometry relative="1" as="geometry">
            <mxPoint x="260" y="160" as="sourcePoint" />
            <mxPoint x="430" y="410" as="targetPoint" />
          </mxGeometry>
        </mxCell>
        <mxCell id="yOm9J7MXX8bLzO9w5WH3-14" value="" style="group" connectable="0" vertex="1" parent="1">
          <mxGeometry x="320.26000000000005" y="920" width="559.74" height="160" as="geometry" />
        </mxCell>
        <mxCell id="yOm9J7MXX8bLzO9w5WH3-15" value="" style="group" connectable="0" vertex="1" parent="yOm9J7MXX8bLzO9w5WH3-14">
          <mxGeometry x="-1.7763568394002505e-14" width="559.74" height="160" as="geometry" />
        </mxCell>
        <mxCell id="yOm9J7MXX8bLzO9w5WH3-12" value="" style="rounded=0;whiteSpace=wrap;html=1;fillColor=light-dark(#ebf3ff, #1d293b);strokeColor=#6c8ebf;" vertex="1" parent="yOm9J7MXX8bLzO9w5WH3-15">
          <mxGeometry x="39.73999999999997" width="520" height="160" as="geometry" />
        </mxCell>
        <mxCell id="TdqekV3uOiESmIX1Np2l-17" value="Servicios" style="rounded=1;whiteSpace=wrap;html=1;verticalAlign=top;spacingTop=10;fillColor=light-dark(#ecf3ff, #1d293b);strokeColor=#6c8ebf;fontStyle=1;" vertex="1" parent="yOm9J7MXX8bLzO9w5WH3-15">
          <mxGeometry x="239.73999999999998" y="24.840000000000032" width="120" height="110" as="geometry" />
        </mxCell>
        <mxCell id="TdqekV3uOiESmIX1Np2l-18" value="Bases de datos" style="rounded=1;whiteSpace=wrap;html=1;verticalAlign=top;spacingTop=10;fillColor=light-dark(#ecf3ff, #1d293b);strokeColor=#6c8ebf;fontStyle=1;" vertex="1" parent="yOm9J7MXX8bLzO9w5WH3-15">
          <mxGeometry x="79.90999999999998" y="24.840000000000032" width="120" height="110" as="geometry" />
        </mxCell>
        <mxCell id="TdqekV3uOiESmIX1Np2l-19" value="Archivos" style="rounded=1;whiteSpace=wrap;html=1;verticalAlign=top;spacingTop=10;fillColor=light-dark(#ecf3ff, #1d293b);strokeColor=#6c8ebf;fontStyle=1;" vertex="1" parent="yOm9J7MXX8bLzO9w5WH3-15">
          <mxGeometry x="399.73999999999995" y="24.840000000000032" width="120" height="110" as="geometry" />
        </mxCell>
        <mxCell id="yOm9J7MXX8bLzO9w5WH3-8" value="Datos" style="rounded=0;whiteSpace=wrap;html=1;fillColor=light-dark(#ecf3ff, #1d293b);strokeColor=#6c8ebf;fontStyle=1;rotation=90;gradientDirection=east;" vertex="1" parent="yOm9J7MXX8bLzO9w5WH3-15">
          <mxGeometry x="-59.790000000000006" y="59.84000000000003" width="159.58" height="40" as="geometry" />
        </mxCell>
        <mxCell id="1NY8sVJnM9WLHm2DIZqB-1" value="" style="shape=image;verticalLabelPosition=bottom;labelBackgroundColor=default;verticalAlign=top;aspect=fixed;imageAspect=0;image=https://cdn4.iconfinder.com/data/icons/flat-pro-database-set-1/32/network-cloud-512.png;" vertex="1" parent="yOm9J7MXX8bLzO9w5WH3-15">
          <mxGeometry x="269.66" y="59.84" width="60.16" height="60.16" as="geometry" />
        </mxCell>
        <mxCell id="yOm9J7MXX8bLzO9w5WH3-17" value="" style="sketch=0;outlineConnect=0;fontColor=#232F3E;gradientColor=none;fillColor=#7AA116;strokeColor=none;dashed=0;verticalLabelPosition=bottom;verticalAlign=top;align=center;html=1;fontSize=12;fontStyle=0;aspect=fixed;pointerEvents=1;shape=mxgraph.aws4.file_system;" vertex="1" parent="1">
          <mxGeometry x="748.76" y="983.42" width="57.4" height="53.72" as="geometry" />
        </mxCell>
        <mxCell id="yOm9J7MXX8bLzO9w5WH3-18" value="" style="shape=cylinder3;whiteSpace=wrap;html=1;boundedLbl=1;backgroundOutline=1;size=15;fillColor=#ffe6cc;strokeColor=#d79b00;" vertex="1" parent="1">
          <mxGeometry x="433.84999999999997" y="980.28" width="50.17" height="60" as="geometry" />
        </mxCell>
        <mxCell id="yOm9J7MXX8bLzO9w5WH3-23" value="" style="group" connectable="0" vertex="1" parent="1">
          <mxGeometry x="319.735" y="639.915" width="520.265" height="120.17000000000007" as="geometry" />
        </mxCell>
        <mxCell id="yOm9J7MXX8bLzO9w5WH3-5" value="Servicios" style="rounded=0;whiteSpace=wrap;html=1;fillColor=#f5f5f5;strokeColor=#666666;fontStyle=1;rotation=90;gradientColor=#b3b3b3;gradientDirection=east;" vertex="1" parent="yOm9J7MXX8bLzO9w5WH3-23">
          <mxGeometry x="-40.08499999999998" y="40.085000000000036" width="120.17" height="40" as="geometry" />
        </mxCell>
        <mxCell id="yOm9J7MXX8bLzO9w5WH3-19" value="Flujos de negocio" style="rounded=1;whiteSpace=wrap;html=1;fillColor=#f5f5f5;strokeColor=#666666;fontStyle=1;gradientColor=#b3b3b3;" vertex="1" parent="yOm9J7MXX8bLzO9w5WH3-23">
          <mxGeometry x="80.26499999999999" y="59.02500000000009" width="130" height="40" as="geometry" />
        </mxCell>
        <mxCell id="yOm9J7MXX8bLzO9w5WH3-20" value="Entidades de negocio" style="rounded=1;whiteSpace=wrap;html=1;fillColor=#f5f5f5;strokeColor=#666666;fontStyle=1;gradientColor=#b3b3b3;" vertex="1" parent="yOm9J7MXX8bLzO9w5WH3-23">
          <mxGeometry x="400.265" y="59.02500000000009" width="120" height="40" as="geometry" />
        </mxCell>
        <mxCell id="yOm9J7MXX8bLzO9w5WH3-21" value="Interfaces de servicio" style="rounded=1;whiteSpace=wrap;html=1;fillColor=#f5f5f5;strokeColor=#666666;fontStyle=1;gradientColor=#b3b3b3;" vertex="1" parent="yOm9J7MXX8bLzO9w5WH3-23">
          <mxGeometry x="80.26499999999999" y="19.02500000000009" width="440" height="30" as="geometry" />
        </mxCell>
        <mxCell id="yOm9J7MXX8bLzO9w5WH3-22" value="Componentes de negocio" style="rounded=1;whiteSpace=wrap;html=1;fillColor=#f5f5f5;strokeColor=#666666;fontStyle=1;gradientColor=#b3b3b3;" vertex="1" parent="yOm9J7MXX8bLzO9w5WH3-23">
          <mxGeometry x="240.265" y="59.02500000000009" width="130" height="40" as="geometry" />
        </mxCell>
        <mxCell id="1NY8sVJnM9WLHm2DIZqB-2" value="" style="shape=image;verticalLabelPosition=bottom;labelBackgroundColor=default;verticalAlign=top;aspect=fixed;imageAspect=0;image=https://cdn4.iconfinder.com/data/icons/flat-pro-database-set-1/32/network-cloud-512.png;" vertex="1" parent="1">
          <mxGeometry x="149.32" y="514.74" width="50.26" height="50.26" as="geometry" />
        </mxCell>
      </root>
    </mxGraphModel>
  </diagram>
  <diagram name="Deployment_General" id="5f0bae14-7c28-e335-631c-24af17079c00">
    <mxGraphModel grid="1" page="1" gridSize="10" guides="1" tooltips="1" connect="1" arrows="1" fold="1" pageScale="1" pageWidth="1100" pageHeight="850" background="none" math="0" shadow="0">
      <root>
        <mxCell id="0" />
        <mxCell id="1" parent="0" />
        <mxCell id="UAE8AfMDkym07qdBaAlc-1" value="Dentro de la infraestructura corporativa e intranet" style="text;html=1;align=center;verticalAlign=middle;whiteSpace=wrap;rounded=0;fillColor=light-dark(#e7ffe5, #1f2f1e);strokeColor=#82b366;" vertex="1" parent="1">
          <mxGeometry x="-1080" y="80" width="160" height="50" as="geometry" />
        </mxCell>
        <mxCell id="UAE8AfMDkym07qdBaAlc-2" value="Dentro de la DMZ de la organizaciÃ³n" style="text;html=1;align=center;verticalAlign=middle;whiteSpace=wrap;rounded=0;fillColor=light-dark(#fdf9ec, #281d00);strokeColor=#d6b656;" vertex="1" parent="1">
          <mxGeometry x="-1080.21" y="140" width="160.21" height="50" as="geometry" />
        </mxCell>
        <mxCell id="UAE8AfMDkym07qdBaAlc-4" value="Fuera de la infraestructura de la organizaciÃ³n" style="text;html=1;align=center;verticalAlign=middle;whiteSpace=wrap;rounded=0;fillColor=light-dark(#faebea, #512d2b);strokeColor=#b85450;" vertex="1" parent="1">
          <mxGeometry x="-1080.21" y="200" width="160" height="50" as="geometry" />
        </mxCell>
        <object placeholders="1" c4Name="[Deployment] Portal de Clientes Cryoinfra" c4Type="ContainerDiagramTitle" c4Description="Diagrama general" label="&lt;font style=&quot;font-size: 16px&quot;&gt;&lt;b&gt;&lt;div style=&quot;text-align: left&quot;&gt;%c4Name%&lt;/div&gt;&lt;/b&gt;&lt;/font&gt;&lt;div style=&quot;text-align: left&quot;&gt;%c4Description%&lt;/div&gt;" id="jG3fke9MLh-8pmYExywH-3">
          <mxCell style="text;html=1;align=left;verticalAlign=top;whiteSpace=wrap;rounded=0;metaEdit=1;allowArrows=0;resizable=1;rotatable=0;connectable=0;recursiveResize=0;expand=0;pointerEvents=0;points=[[0.25,0,0],[0.5,0,0],[0.75,0,0],[1,0.25,0],[1,0.5,0],[1,0.75,0],[0.75,1,0],[0.5,1,0],[0.25,1,0],[0,0.75,0],[0,0.5,0],[0,0.25,0]];fillColor=#f5f5f5;fontColor=#333333;strokeColor=none;" vertex="1" parent="1">
            <mxGeometry x="-1100" width="1100" height="40" as="geometry" />
          </mxCell>
        </object>
        <mxCell id="UAE8AfMDkym07qdBaAlc-9" value="&lt;div style=&quot;&quot;&gt;&lt;span style=&quot;background-color: transparent; color: light-dark(rgb(51, 51, 51), rgb(193, 193, 193));&quot;&gt;Requisitos mÃ­nimos&lt;/span&gt;&lt;/div&gt;&lt;div&gt;&lt;ol&gt;&lt;li style=&quot;text-align: left;&quot;&gt;&lt;span style=&quot;background-color: transparent; color: light-dark(rgb(51, 51, 51), rgb(193, 193, 193));&quot;&gt;InstalaciÃ³n: Net 8 Runtime.&lt;/span&gt;&lt;/li&gt;&lt;li style=&quot;text-align: left;&quot;&gt;&lt;span style=&quot;background-color: transparent; color: light-dark(rgb(51, 51, 51), rgb(193, 193, 193));&quot;&gt;InstalaciÃ³n: Net 8 Hosting Bundle.&lt;/span&gt;&lt;/li&gt;&lt;li style=&quot;text-align: left;&quot;&gt;&lt;span style=&quot;background-color: transparent; color: light-dark(rgb(51, 51, 51), rgb(193, 193, 193));&quot;&gt;Carga Activa activada en IIS Apps.&lt;/span&gt;&lt;/li&gt;&lt;li style=&quot;text-align: left;&quot;&gt;&lt;span style=&quot;background-color: transparent; color: light-dark(rgb(51, 51, 51), rgb(193, 193, 193));&quot;&gt;Always Running activada en IIS Pools.&lt;/span&gt;&lt;/li&gt;&lt;/ol&gt;&lt;/div&gt;" style="shape=note;whiteSpace=wrap;html=1;backgroundOutline=1;darkOpacity=0.05;fillColor=#f5f5f5;strokeColor=#666666;fontColor=#333333;align=center;" vertex="1" parent="1">
          <mxGeometry x="-760" y="80" width="280" height="120" as="geometry" />
        </mxCell>
        <mxCell id="nPNSdhRXmSL_q1nLzJ4B-38" value="&lt;div style=&quot;&quot;&gt;&lt;span style=&quot;background-color: transparent; color: light-dark(rgb(51, 51, 51), rgb(193, 193, 193));&quot;&gt;Requisitos mÃ­nimos&lt;/span&gt;&lt;/div&gt;&lt;div&gt;&lt;ol&gt;&lt;li style=&quot;text-align: left;&quot;&gt;&lt;span style=&quot;background-color: transparent; color: light-dark(rgb(51, 51, 51), rgb(193, 193, 193));&quot;&gt;InstalaciÃ³n de NET Framework 4.5+&lt;/span&gt;&lt;/li&gt;&lt;li style=&quot;text-align: left;&quot;&gt;&lt;span style=&quot;background-color: transparent; color: light-dark(rgb(51, 51, 51), rgb(193, 193, 193));&quot;&gt;InstalaciÃ³n: Net 8 Runtime.&lt;/span&gt;&lt;/li&gt;&lt;li style=&quot;text-align: left;&quot;&gt;&lt;span style=&quot;background-color: transparent; color: light-dark(rgb(51, 51, 51), rgb(193, 193, 193));&quot;&gt;InstalaciÃ³n: Net 8 Hosting Bundle.&lt;/span&gt;&lt;/li&gt;&lt;li style=&quot;text-align: left;&quot;&gt;&lt;span style=&quot;background-color: transparent; color: light-dark(rgb(51, 51, 51), rgb(193, 193, 193));&quot;&gt;Carga Activa activada en IIS Apps.&lt;/span&gt;&lt;/li&gt;&lt;li style=&quot;text-align: left;&quot;&gt;&lt;span style=&quot;background-color: transparent; color: light-dark(rgb(51, 51, 51), rgb(193, 193, 193));&quot;&gt;Always Running activada en IIS Pools.&lt;/span&gt;&lt;/li&gt;&lt;/ol&gt;&lt;/div&gt;" style="shape=note;whiteSpace=wrap;html=1;backgroundOutline=1;darkOpacity=0.05;fillColor=#f5f5f5;strokeColor=#666666;fontColor=#333333;align=center;" vertex="1" parent="1">
          <mxGeometry x="-360" y="80" width="280" height="120" as="geometry" />
        </mxCell>
        <mxCell id="nPNSdhRXmSL_q1nLzJ4B-73" value="SRVCORPIISN" style="verticalAlign=top;align=left;spacingTop=8;spacingLeft=2;spacingRight=12;shape=cube;size=10;direction=south;fontStyle=4;html=1;rounded=0;shadow=0;comic=0;labelBackgroundColor=none;strokeWidth=1;fontFamily=Verdana;fontSize=12;fillColor=light-dark(#e5ffe5, #002b00);strokeColor=#82b366;" vertex="1" parent="1">
          <mxGeometry x="-760.21" y="280" width="320.21" height="320" as="geometry" />
        </mxCell>
        <mxCell id="nPNSdhRXmSL_q1nLzJ4B-74" value="" style="group" connectable="0" vertex="1" parent="1">
          <mxGeometry x="-720.21" y="320" width="440" height="660" as="geometry" />
        </mxCell>
        <mxCell id="nPNSdhRXmSL_q1nLzJ4B-75" value="Â«MÃ³duloÂ»&lt;br&gt;&lt;b&gt;API del Portal&amp;nbsp;&lt;/b&gt;&lt;div&gt;&lt;b&gt;de&amp;nbsp;&lt;/b&gt;&lt;b style=&quot;background-color: transparent; color: light-dark(rgb(0, 0, 0), rgb(255, 255, 255));&quot;&gt;Clientes&amp;nbsp;&lt;/b&gt;&lt;div&gt;&lt;b&gt;Cryoinfra&lt;/b&gt;&lt;/div&gt;&lt;/div&gt;" style="html=1;dropTarget=0;whiteSpace=wrap;align=left;labelPosition=center;verticalLabelPosition=middle;verticalAlign=top;" vertex="1" parent="nPNSdhRXmSL_q1nLzJ4B-74">
          <mxGeometry width="240" height="240" as="geometry" />
        </mxCell>
        <mxCell id="nPNSdhRXmSL_q1nLzJ4B-76" style="edgeStyle=orthogonalEdgeStyle;rounded=0;orthogonalLoop=1;jettySize=auto;html=1;entryX=0.5;entryY=1;entryDx=0;entryDy=0;dashed=1;" edge="1" parent="nPNSdhRXmSL_q1nLzJ4B-74" source="nPNSdhRXmSL_q1nLzJ4B-77" target="nPNSdhRXmSL_q1nLzJ4B-78">
          <mxGeometry relative="1" as="geometry" />
        </mxCell>
        <mxCell id="nPNSdhRXmSL_q1nLzJ4B-77" value="&lt;a href=&quot;data:page/id,vlqLbaqAPyhLbalGMvQW&quot;&gt;PCCapi&lt;/a&gt;" style="shape=component;align=left;spacingLeft=36;rounded=0;shadow=0;comic=0;labelBackgroundColor=none;strokeWidth=1;fontFamily=Verdana;fontSize=12;html=1;" vertex="1" parent="nPNSdhRXmSL_q1nLzJ4B-74">
          <mxGeometry x="50.209999999999994" y="160" width="157.79" height="45.59" as="geometry" />
        </mxCell>
        <mxCell id="nPNSdhRXmSL_q1nLzJ4B-78" value="&lt;span style=&quot;text-decoration-line: underline;&quot;&gt;&lt;a href=&quot;data:page/id,0Q_CsHpoBdwbyoTImUB6&quot;&gt;CryoDAC-PCC&lt;/a&gt;&lt;/span&gt;" style="shape=component;align=left;spacingLeft=36;rounded=0;shadow=0;comic=0;labelBackgroundColor=none;strokeWidth=1;fontFamily=Verdana;fontSize=12;html=1;" vertex="1" parent="nPNSdhRXmSL_q1nLzJ4B-74">
          <mxGeometry x="48.20999999999998" y="82" width="159.79" height="45.59" as="geometry" />
        </mxCell>
        <mxCell id="nPNSdhRXmSL_q1nLzJ4B-80" value="SRVCORPDBN1" style="verticalAlign=top;align=left;spacingTop=8;spacingLeft=2;spacingRight=12;shape=cube;size=10;direction=south;fontStyle=4;html=1;rounded=0;shadow=0;comic=0;labelBackgroundColor=none;strokeWidth=1;fontFamily=Verdana;fontSize=12;fillColor=light-dark(#e5ffe5, #1f2f1e);strokeColor=#82b366;" vertex="1" parent="1">
          <mxGeometry x="-1080" y="280" width="280" height="240" as="geometry" />
        </mxCell>
        <mxCell id="nPNSdhRXmSL_q1nLzJ4B-81" value="Â«MÃ³duloÂ»&lt;br&gt;&lt;b&gt;INSTANCIA2&lt;/b&gt;" style="html=1;dropTarget=0;whiteSpace=wrap;align=left;labelPosition=center;verticalLabelPosition=middle;verticalAlign=top;" vertex="1" parent="1">
          <mxGeometry x="-1050.21" y="320" width="200" height="180" as="geometry" />
        </mxCell>
        <mxCell id="nPNSdhRXmSL_q1nLzJ4B-82" style="edgeStyle=orthogonalEdgeStyle;rounded=0;html=1;labelBackgroundColor=none;startArrow=none;startFill=0;startSize=8;endArrow=none;endFill=0;endSize=16;fontFamily=Verdana;fontSize=12;exitX=0.208;exitY=-0.004;exitDx=0;exitDy=0;exitPerimeter=0;entryX=0.08;entryY=1.001;entryDx=0;entryDy=0;entryPerimeter=0;" edge="1" parent="1" source="nPNSdhRXmSL_q1nLzJ4B-80" target="nPNSdhRXmSL_q1nLzJ4B-73">
          <mxGeometry relative="1" as="geometry">
            <Array as="points" />
            <mxPoint x="-840.21" y="415" as="sourcePoint" />
            <mxPoint x="-763" y="416" as="targetPoint" />
          </mxGeometry>
        </mxCell>
        <mxCell id="nPNSdhRXmSL_q1nLzJ4B-83" value="&lt;div&gt;&amp;nbsp;TCP / IP&amp;nbsp;&lt;/div&gt;" style="edgeLabel;html=1;align=center;verticalAlign=middle;resizable=0;points=[];" connectable="0" vertex="1" parent="nPNSdhRXmSL_q1nLzJ4B-82">
          <mxGeometry x="-0.4034" y="-1" relative="1" as="geometry">
            <mxPoint x="-1" y="-10" as="offset" />
          </mxGeometry>
        </mxCell>
        <mxCell id="nPNSdhRXmSL_q1nLzJ4B-84" value="&lt;a href=&quot;data:page/id,ktTM1KwgM1YZQFVMlrb4&quot;&gt;BD: PCC&lt;/a&gt;" style="shape=component;align=left;spacingLeft=36;rounded=0;shadow=0;comic=0;labelBackgroundColor=none;strokeWidth=1;fontFamily=Verdana;fontSize=12;html=1;" vertex="1" parent="1">
          <mxGeometry x="-1007.71" y="365" width="115" height="45" as="geometry" />
        </mxCell>
        <mxCell id="nPNSdhRXmSL_q1nLzJ4B-85" value="" style="ellipse;whiteSpace=wrap;html=1;rounded=0;shadow=0;comic=0;labelBackgroundColor=none;strokeWidth=1;fontFamily=Verdana;fontSize=12;align=center;" vertex="1" parent="1">
          <mxGeometry x="-892.7122448979592" y="430" width="19.591836734693878" height="20" as="geometry" />
        </mxCell>
        <mxCell id="nPNSdhRXmSL_q1nLzJ4B-86" style="edgeStyle=elbowEdgeStyle;rounded=0;html=1;labelBackgroundColor=none;startArrow=none;startFill=0;startSize=8;endArrow=none;endFill=0;endSize=16;fontFamily=Verdana;fontSize=12;entryX=0;entryY=0.7;entryDx=0;entryDy=0;exitX=0;exitY=0.5;exitDx=0;exitDy=0;" edge="1" parent="1" source="nPNSdhRXmSL_q1nLzJ4B-85" target="nPNSdhRXmSL_q1nLzJ4B-84">
          <mxGeometry relative="1" as="geometry">
            <mxPoint x="-1045.6467346938775" y="375" as="targetPoint" />
            <mxPoint x="-870.21" y="490" as="sourcePoint" />
            <Array as="points">
              <mxPoint x="-1020.21" y="460" />
            </Array>
          </mxGeometry>
        </mxCell>
        <mxCell id="nPNSdhRXmSL_q1nLzJ4B-87" value="&amp;nbsp;ODBC&amp;nbsp;" style="edgeLabel;html=1;align=center;verticalAlign=middle;resizable=0;points=[];" connectable="0" vertex="1" parent="nPNSdhRXmSL_q1nLzJ4B-86">
          <mxGeometry x="-0.476" relative="1" as="geometry">
            <mxPoint x="14" as="offset" />
          </mxGeometry>
        </mxCell>
        <mxCell id="nPNSdhRXmSL_q1nLzJ4B-93" value="" style="group" connectable="0" vertex="1" parent="1">
          <mxGeometry x="-1080.21" y="560" width="280" height="130" as="geometry" />
        </mxCell>
        <mxCell id="nPNSdhRXmSL_q1nLzJ4B-94" value="SRVCORPJD1N" style="verticalAlign=top;align=left;spacingTop=8;spacingLeft=2;spacingRight=12;shape=cube;size=10;direction=south;fontStyle=4;html=1;rounded=0;shadow=0;comic=0;labelBackgroundColor=none;strokeWidth=1;fontFamily=Verdana;fontSize=12;fillColor=light-dark(#e5ffe5, #1f2f1e);strokeColor=#82b366;" vertex="1" parent="nPNSdhRXmSL_q1nLzJ4B-93">
          <mxGeometry width="240" height="130" as="geometry" />
        </mxCell>
        <mxCell id="nPNSdhRXmSL_q1nLzJ4B-95" value="JDEdwards" style="shape=component;align=left;spacingLeft=36;rounded=0;shadow=0;comic=0;labelBackgroundColor=none;strokeWidth=1;fontFamily=Verdana;fontSize=12;html=1;" vertex="1" parent="nPNSdhRXmSL_q1nLzJ4B-93">
          <mxGeometry x="80" y="42.2" width="140" height="45.59" as="geometry" />
        </mxCell>
        <mxCell id="nPNSdhRXmSL_q1nLzJ4B-96" style="edgeStyle=elbowEdgeStyle;rounded=0;html=1;labelBackgroundColor=none;startArrow=none;startFill=0;startSize=8;endArrow=none;endFill=0;endSize=16;fontFamily=Verdana;fontSize=12;entryX=0;entryY=0.3;entryDx=0;entryDy=0;exitX=0;exitY=0.5;exitDx=0;exitDy=0;" edge="1" parent="nPNSdhRXmSL_q1nLzJ4B-93" source="nPNSdhRXmSL_q1nLzJ4B-98" target="nPNSdhRXmSL_q1nLzJ4B-95">
          <mxGeometry relative="1" as="geometry">
            <mxPoint x="120.21" y="76" as="targetPoint" />
            <mxPoint x="69.19326530612254" y="27.199999999999932" as="sourcePoint" />
            <Array as="points">
              <mxPoint x="40" y="70" />
            </Array>
          </mxGeometry>
        </mxCell>
        <mxCell id="nPNSdhRXmSL_q1nLzJ4B-97" value="Link&lt;span style=&quot;background-color: light-dark(#ffffff, var(--ge-dark-color, #121212)); color: light-dark(rgb(0, 0, 0), rgb(255, 255, 255));&quot;&gt;ed Server&lt;/span&gt;" style="edgeLabel;html=1;align=center;verticalAlign=middle;resizable=0;points=[];" connectable="0" vertex="1" parent="nPNSdhRXmSL_q1nLzJ4B-96">
          <mxGeometry x="-0.476" relative="1" as="geometry">
            <mxPoint x="14" y="-2" as="offset" />
          </mxGeometry>
        </mxCell>
        <mxCell id="nPNSdhRXmSL_q1nLzJ4B-98" value="" style="ellipse;whiteSpace=wrap;html=1;rounded=0;shadow=0;comic=0;labelBackgroundColor=none;strokeWidth=1;fontFamily=Verdana;fontSize=12;align=center;" vertex="1" parent="nPNSdhRXmSL_q1nLzJ4B-93">
          <mxGeometry x="189.99775510204088" y="100" width="19.591836734693878" height="20" as="geometry" />
        </mxCell>
        <mxCell id="nPNSdhRXmSL_q1nLzJ4B-99" style="edgeStyle=orthogonalEdgeStyle;rounded=0;orthogonalLoop=1;jettySize=auto;html=1;entryX=0;entryY=0;entryDx=100;entryDy=125.105;entryPerimeter=0;endArrow=none;startFill=0;dashed=1;" edge="1" parent="1" source="nPNSdhRXmSL_q1nLzJ4B-79" target="nPNSdhRXmSL_q1nLzJ4B-111">
          <mxGeometry relative="1" as="geometry" />
        </mxCell>
        <mxCell id="nPNSdhRXmSL_q1nLzJ4B-100" style="edgeStyle=orthogonalEdgeStyle;rounded=0;orthogonalLoop=1;jettySize=auto;html=1;entryX=1;entryY=0.5;entryDx=0;entryDy=0;dashed=1;exitX=0.25;exitY=1;exitDx=0;exitDy=0;" edge="1" parent="1" source="nPNSdhRXmSL_q1nLzJ4B-77" target="nPNSdhRXmSL_q1nLzJ4B-85">
          <mxGeometry relative="1" as="geometry" />
        </mxCell>
        <mxCell id="nPNSdhRXmSL_q1nLzJ4B-101" value="Port&lt;div&gt;1433&lt;/div&gt;" style="edgeLabel;html=1;align=center;verticalAlign=middle;resizable=0;points=[];" connectable="0" vertex="1" parent="nPNSdhRXmSL_q1nLzJ4B-100">
          <mxGeometry x="0.4145" y="-1" relative="1" as="geometry">
            <mxPoint x="-9" y="-7" as="offset" />
          </mxGeometry>
        </mxCell>
        <mxCell id="nPNSdhRXmSL_q1nLzJ4B-102" style="edgeStyle=orthogonalEdgeStyle;rounded=0;orthogonalLoop=1;jettySize=auto;html=1;entryX=0;entryY=0;entryDx=320;entryDy=165.105;entryPerimeter=0;exitX=0;exitY=0;exitDx=60;exitDy=0;exitPerimeter=0;endArrow=none;startFill=0;" edge="1" parent="1" source="nPNSdhRXmSL_q1nLzJ4B-88" target="nPNSdhRXmSL_q1nLzJ4B-73">
          <mxGeometry relative="1" as="geometry" />
        </mxCell>
        <mxCell id="nPNSdhRXmSL_q1nLzJ4B-103" value="&amp;nbsp;TCP / IP&amp;nbsp;" style="edgeLabel;html=1;align=center;verticalAlign=middle;resizable=0;points=[];" connectable="0" vertex="1" parent="nPNSdhRXmSL_q1nLzJ4B-102">
          <mxGeometry x="-0.0325" y="1" relative="1" as="geometry">
            <mxPoint as="offset" />
          </mxGeometry>
        </mxCell>
        <mxCell id="nPNSdhRXmSL_q1nLzJ4B-106" style="edgeStyle=orthogonalEdgeStyle;rounded=0;orthogonalLoop=1;jettySize=auto;html=1;entryX=0;entryY=0;entryDx=240;entryDy=145;entryPerimeter=0;endArrow=none;startFill=0;" edge="1" parent="1" source="nPNSdhRXmSL_q1nLzJ4B-94" target="nPNSdhRXmSL_q1nLzJ4B-80">
          <mxGeometry relative="1" as="geometry" />
        </mxCell>
        <mxCell id="nPNSdhRXmSL_q1nLzJ4B-107" value="&amp;nbsp;TCP / IP&amp;nbsp;" style="edgeLabel;html=1;align=center;verticalAlign=middle;resizable=0;points=[];" connectable="0" vertex="1" parent="nPNSdhRXmSL_q1nLzJ4B-106">
          <mxGeometry x="-0.021" y="1" relative="1" as="geometry">
            <mxPoint as="offset" />
          </mxGeometry>
        </mxCell>
        <mxCell id="nPNSdhRXmSL_q1nLzJ4B-108" style="edgeStyle=orthogonalEdgeStyle;rounded=0;orthogonalLoop=1;jettySize=auto;html=1;entryX=1;entryY=0.5;entryDx=0;entryDy=0;exitX=1;exitY=0.5;exitDx=0;exitDy=0;dashed=1;" edge="1" parent="1" source="nPNSdhRXmSL_q1nLzJ4B-84" target="nPNSdhRXmSL_q1nLzJ4B-98">
          <mxGeometry relative="1" as="geometry">
            <Array as="points">
              <mxPoint x="-830" y="388" />
              <mxPoint x="-830" y="670" />
            </Array>
          </mxGeometry>
        </mxCell>
        <mxCell id="nPNSdhRXmSL_q1nLzJ4B-109" value="Port&lt;div&gt;1433&lt;/div&gt;" style="edgeLabel;html=1;align=center;verticalAlign=middle;resizable=0;points=[];" connectable="0" vertex="1" parent="nPNSdhRXmSL_q1nLzJ4B-108">
          <mxGeometry x="0.8688" y="-1" relative="1" as="geometry">
            <mxPoint x="16" y="-129" as="offset" />
          </mxGeometry>
        </mxCell>
        <mxCell id="nPNSdhRXmSL_q1nLzJ4B-110" value="" style="group;fillColor=default;" connectable="0" vertex="1" parent="1">
          <mxGeometry x="-360" y="920" width="240.21" height="100" as="geometry" />
        </mxCell>
        <mxCell id="nPNSdhRXmSL_q1nLzJ4B-111" value="EQUIPO PC" style="verticalAlign=top;align=left;spacingTop=8;spacingLeft=2;spacingRight=12;shape=cube;size=10;direction=south;fontStyle=4;html=1;rounded=0;shadow=0;comic=0;labelBackgroundColor=none;strokeWidth=1;fontFamily=Verdana;fontSize=12;fillColor=light-dark(#f9ebea, #512d2b);strokeColor=#b85450;" vertex="1" parent="nPNSdhRXmSL_q1nLzJ4B-110">
          <mxGeometry width="240.21" height="100" as="geometry" />
        </mxCell>
        <mxCell id="nPNSdhRXmSL_q1nLzJ4B-112" value="Navegador Web" style="shape=component;align=left;spacingLeft=36;rounded=0;shadow=0;comic=0;labelBackgroundColor=none;strokeWidth=1;fontFamily=Verdana;fontSize=12;html=1;" vertex="1" parent="nPNSdhRXmSL_q1nLzJ4B-110">
          <mxGeometry x="40.10000000000002" y="40" width="160" height="45.59" as="geometry" />
        </mxCell>
        <mxCell id="nPNSdhRXmSL_q1nLzJ4B-113" style="edgeStyle=orthogonalEdgeStyle;rounded=0;orthogonalLoop=1;jettySize=auto;html=1;endArrow=none;startFill=0;" edge="1" parent="1" source="nPNSdhRXmSL_q1nLzJ4B-111" target="nPNSdhRXmSL_q1nLzJ4B-121">
          <mxGeometry relative="1" as="geometry" />
        </mxCell>
        <mxCell id="nPNSdhRXmSL_q1nLzJ4B-114" value="&amp;nbsp;TCP / IP&amp;nbsp;" style="edgeLabel;html=1;align=center;verticalAlign=middle;resizable=0;points=[];" connectable="0" vertex="1" parent="nPNSdhRXmSL_q1nLzJ4B-113">
          <mxGeometry x="-0.2483" relative="1" as="geometry">
            <mxPoint as="offset" />
          </mxGeometry>
        </mxCell>
        <mxCell id="nPNSdhRXmSL_q1nLzJ4B-115" style="edgeStyle=orthogonalEdgeStyle;rounded=0;orthogonalLoop=1;jettySize=auto;html=1;entryX=0;entryY=0;entryDx=310;entryDy=0;entryPerimeter=0;endArrow=none;startFill=0;" edge="1" parent="1" source="nPNSdhRXmSL_q1nLzJ4B-121" target="nPNSdhRXmSL_q1nLzJ4B-73">
          <mxGeometry relative="1" as="geometry" />
        </mxCell>
        <mxCell id="nPNSdhRXmSL_q1nLzJ4B-116" value="&amp;nbsp;TCP / IP&amp;nbsp;" style="edgeLabel;html=1;align=center;verticalAlign=middle;resizable=0;points=[];" connectable="0" vertex="1" parent="nPNSdhRXmSL_q1nLzJ4B-115">
          <mxGeometry x="-0.1531" y="-1" relative="1" as="geometry">
            <mxPoint as="offset" />
          </mxGeometry>
        </mxCell>
        <mxCell id="nPNSdhRXmSL_q1nLzJ4B-119" value="" style="group" connectable="0" vertex="1" parent="1">
          <mxGeometry x="-400" y="280" width="360" height="560" as="geometry" />
        </mxCell>
        <mxCell id="nPNSdhRXmSL_q1nLzJ4B-120" value="" style="group" connectable="0" vertex="1" parent="nPNSdhRXmSL_q1nLzJ4B-119">
          <mxGeometry width="360" height="560" as="geometry" />
        </mxCell>
        <mxCell id="nPNSdhRXmSL_q1nLzJ4B-121" value="SERVICIOS" style="verticalAlign=top;align=left;spacingTop=8;spacingLeft=2;spacingRight=12;shape=cube;size=10;direction=south;fontStyle=4;html=1;rounded=0;shadow=0;comic=0;labelBackgroundColor=none;strokeWidth=1;fontFamily=Verdana;fontSize=12;fillColor=light-dark(#fef9ec, #281d00);strokeColor=#d6b656;" vertex="1" parent="nPNSdhRXmSL_q1nLzJ4B-120">
          <mxGeometry width="360" height="560" as="geometry" />
        </mxCell>
        <mxCell id="nPNSdhRXmSL_q1nLzJ4B-122" value="" style="group" connectable="0" vertex="1" parent="nPNSdhRXmSL_q1nLzJ4B-119">
          <mxGeometry x="40.110000000000014" y="40" width="280" height="280" as="geometry" />
        </mxCell>
        <mxCell id="nPNSdhRXmSL_q1nLzJ4B-123" value="Â«MÃ³duloÂ»&lt;br&gt;&lt;b&gt;WSK_PCC&lt;/b&gt;" style="html=1;dropTarget=0;whiteSpace=wrap;align=left;labelPosition=center;verticalLabelPosition=middle;verticalAlign=top;" vertex="1" parent="nPNSdhRXmSL_q1nLzJ4B-122">
          <mxGeometry width="280" height="280" as="geometry" />
        </mxCell>
        <mxCell id="nPNSdhRXmSL_q1nLzJ4B-124" value="" style="group" connectable="0" vertex="1" parent="nPNSdhRXmSL_q1nLzJ4B-122">
          <mxGeometry x="29.887755102040856" y="59.99999999999996" width="223.63224489795914" height="55" as="geometry" />
        </mxCell>
        <mxCell id="nPNSdhRXmSL_q1nLzJ4B-125" value="WSK" style="shape=component;align=left;spacingLeft=36;rounded=0;shadow=0;comic=0;labelBackgroundColor=none;strokeWidth=1;fontFamily=Verdana;fontSize=12;html=1;" vertex="1" parent="nPNSdhRXmSL_q1nLzJ4B-124">
          <mxGeometry x="80.00224489795914" y="5" width="143.63" height="45.59" as="geometry" />
        </mxCell>
        <mxCell id="nPNSdhRXmSL_q1nLzJ4B-126" value="" style="group" connectable="0" vertex="1" parent="nPNSdhRXmSL_q1nLzJ4B-122">
          <mxGeometry x="29.887755102040856" y="210" width="223.63224489795914" height="55" as="geometry" />
        </mxCell>
        <mxCell id="nPNSdhRXmSL_q1nLzJ4B-127" value="&lt;span style=&quot;text-decoration-line: underline;&quot;&gt;WSS HUB&lt;/span&gt;" style="shape=component;align=left;spacingLeft=36;rounded=0;shadow=0;comic=0;labelBackgroundColor=none;strokeWidth=1;fontFamily=Verdana;fontSize=12;html=1;" vertex="1" parent="nPNSdhRXmSL_q1nLzJ4B-126">
          <mxGeometry x="80.00224489795914" y="5" width="143.63" height="45.59" as="geometry" />
        </mxCell>
        <mxCell id="nPNSdhRXmSL_q1nLzJ4B-128" value="" style="ellipse;whiteSpace=wrap;html=1;rounded=0;shadow=0;comic=0;labelBackgroundColor=none;strokeWidth=1;fontFamily=Verdana;fontSize=12;align=center;" vertex="1" parent="nPNSdhRXmSL_q1nLzJ4B-126">
          <mxGeometry y="35" width="19.591836734693878" height="20" as="geometry" />
        </mxCell>
        <mxCell id="nPNSdhRXmSL_q1nLzJ4B-129" style="edgeStyle=elbowEdgeStyle;rounded=0;html=1;labelBackgroundColor=none;startArrow=none;startFill=0;startSize=8;endArrow=none;endFill=0;endSize=16;fontFamily=Verdana;fontSize=12;entryX=0;entryY=0.7;entryDx=0;entryDy=0;exitX=1;exitY=0.5;exitDx=0;exitDy=0;" edge="1" parent="nPNSdhRXmSL_q1nLzJ4B-126" source="nPNSdhRXmSL_q1nLzJ4B-128" target="nPNSdhRXmSL_q1nLzJ4B-127">
          <mxGeometry relative="1" as="geometry">
            <mxPoint x="107.61224489795927" y="50.999999999999886" as="targetPoint" />
            <mxPoint x="38.775510204081684" y="-15.000000000000114" as="sourcePoint" />
          </mxGeometry>
        </mxCell>
        <mxCell id="nPNSdhRXmSL_q1nLzJ4B-130" value="WSS" style="edgeLabel;html=1;align=center;verticalAlign=middle;resizable=0;points=[];" connectable="0" vertex="1" parent="nPNSdhRXmSL_q1nLzJ4B-129">
          <mxGeometry x="-0.476" relative="1" as="geometry">
            <mxPoint x="12" as="offset" />
          </mxGeometry>
        </mxCell>
        <mxCell id="nPNSdhRXmSL_q1nLzJ4B-131" style="edgeStyle=none;rounded=0;html=1;dashed=1;labelBackgroundColor=none;startArrow=none;startFill=0;startSize=8;endArrow=open;endFill=0;endSize=16;fontFamily=Verdana;fontSize=12;exitX=0.5;exitY=1;exitDx=0;exitDy=0;entryX=0.5;entryY=0;entryDx=0;entryDy=0;" edge="1" parent="nPNSdhRXmSL_q1nLzJ4B-122" source="nPNSdhRXmSL_q1nLzJ4B-125" target="nPNSdhRXmSL_q1nLzJ4B-133">
          <mxGeometry relative="1" as="geometry">
            <mxPoint x="80" y="-80" as="sourcePoint" />
            <mxPoint x="236" y="-80" as="targetPoint" />
            <Array as="points" />
          </mxGeometry>
        </mxCell>
        <mxCell id="nPNSdhRXmSL_q1nLzJ4B-132" style="edgeStyle=none;rounded=0;html=1;dashed=1;labelBackgroundColor=none;startArrow=none;startFill=0;startSize=8;endArrow=open;endFill=0;endSize=16;fontFamily=Verdana;fontSize=12;exitX=0.5;exitY=1;exitDx=0;exitDy=0;entryX=1;entryY=0;entryDx=0;entryDy=0;" edge="1" parent="nPNSdhRXmSL_q1nLzJ4B-122" source="nPNSdhRXmSL_q1nLzJ4B-133" target="nPNSdhRXmSL_q1nLzJ4B-128">
          <mxGeometry relative="1" as="geometry">
            <mxPoint x="180" y="166" as="sourcePoint" />
            <mxPoint x="180" y="200" as="targetPoint" />
            <Array as="points">
              <mxPoint x="181.89" y="200" />
              <mxPoint x="89.88999999999999" y="200" />
            </Array>
          </mxGeometry>
        </mxCell>
        <mxCell id="nPNSdhRXmSL_q1nLzJ4B-133" value="&lt;span style=&quot;text-decoration-line: underline;&quot;&gt;&lt;a href=&quot;data:page/id,Cpa7y_rWCMo4vhZeex2k&quot;&gt;CryoAPI-PCC&lt;/a&gt;&lt;/span&gt;" style="shape=component;align=left;spacingLeft=36;rounded=0;shadow=0;comic=0;labelBackgroundColor=none;strokeWidth=1;fontFamily=Verdana;fontSize=12;html=1;" vertex="1" parent="nPNSdhRXmSL_q1nLzJ4B-122">
          <mxGeometry x="109.89" y="140" width="143.63" height="45.59" as="geometry" />
        </mxCell>
        <mxCell id="nPNSdhRXmSL_q1nLzJ4B-134" value="" style="ellipse;whiteSpace=wrap;html=1;rounded=0;shadow=0;comic=0;labelBackgroundColor=none;strokeWidth=1;fontFamily=Verdana;fontSize=12;align=center;" vertex="1" parent="nPNSdhRXmSL_q1nLzJ4B-122">
          <mxGeometry x="233.92775510204086" y="30" width="19.591836734693878" height="20" as="geometry" />
        </mxCell>
        <mxCell id="nPNSdhRXmSL_q1nLzJ4B-135" style="edgeStyle=elbowEdgeStyle;rounded=0;html=1;labelBackgroundColor=none;startArrow=none;startFill=0;startSize=8;endArrow=none;endFill=0;endSize=16;fontFamily=Verdana;fontSize=12;entryX=0;entryY=0.7;entryDx=0;entryDy=0;exitX=0;exitY=0.5;exitDx=0;exitDy=0;" edge="1" parent="nPNSdhRXmSL_q1nLzJ4B-122" source="nPNSdhRXmSL_q1nLzJ4B-134" target="nPNSdhRXmSL_q1nLzJ4B-125">
          <mxGeometry relative="1" as="geometry">
            <mxPoint x="159.99775510204086" y="255" as="targetPoint" />
            <mxPoint x="229.89" y="40" as="sourcePoint" />
            <Array as="points">
              <mxPoint x="100" y="85" />
            </Array>
          </mxGeometry>
        </mxCell>
        <mxCell id="nPNSdhRXmSL_q1nLzJ4B-136" value="&amp;nbsp;API REST" style="edgeLabel;html=1;align=center;verticalAlign=middle;resizable=0;points=[];" connectable="0" vertex="1" parent="nPNSdhRXmSL_q1nLzJ4B-135">
          <mxGeometry x="-0.476" relative="1" as="geometry">
            <mxPoint x="-22" as="offset" />
          </mxGeometry>
        </mxCell>
        <mxCell id="nPNSdhRXmSL_q1nLzJ4B-137" value="" style="group" connectable="0" vertex="1" parent="nPNSdhRXmSL_q1nLzJ4B-119">
          <mxGeometry x="40" y="360" width="280" height="160" as="geometry" />
        </mxCell>
        <mxCell id="nPNSdhRXmSL_q1nLzJ4B-138" value="Â«MÃ³duloÂ»&lt;br&gt;&lt;b&gt;Web del Portal&amp;nbsp;&lt;/b&gt;&lt;div&gt;&lt;b&gt;de&amp;nbsp;&lt;/b&gt;&lt;b style=&quot;background-color: transparent; color: light-dark(rgb(0, 0, 0), rgb(255, 255, 255));&quot;&gt;Clientes&amp;nbsp;&lt;/b&gt;&lt;div&gt;&lt;b&gt;Cryoinfra&lt;/b&gt;&lt;/div&gt;&lt;/div&gt;" style="html=1;dropTarget=0;whiteSpace=wrap;align=left;labelPosition=center;verticalLabelPosition=middle;verticalAlign=top;" vertex="1" parent="nPNSdhRXmSL_q1nLzJ4B-137">
          <mxGeometry width="280" height="160" as="geometry" />
        </mxCell>
        <mxCell id="nPNSdhRXmSL_q1nLzJ4B-139" value="" style="group" connectable="0" vertex="1" parent="nPNSdhRXmSL_q1nLzJ4B-119">
          <mxGeometry x="69.99775510204086" y="400" width="223.63224489795914" height="55" as="geometry" />
        </mxCell>
        <mxCell id="nPNSdhRXmSL_q1nLzJ4B-140" value="&lt;a href=&quot;data:page/id,CAkbjGYW9U80A9qlaJgm&quot;&gt;PCC&lt;/a&gt;" style="shape=component;align=left;spacingLeft=36;rounded=0;shadow=0;comic=0;labelBackgroundColor=none;strokeWidth=1;fontFamily=Verdana;fontSize=12;html=1;" vertex="1" parent="nPNSdhRXmSL_q1nLzJ4B-139">
          <mxGeometry x="80.00224489795914" y="5" width="143.63" height="45.59" as="geometry" />
        </mxCell>
        <mxCell id="nPNSdhRXmSL_q1nLzJ4B-141" value="" style="ellipse;whiteSpace=wrap;html=1;rounded=0;shadow=0;comic=0;labelBackgroundColor=none;strokeWidth=1;fontFamily=Verdana;fontSize=12;align=center;" vertex="1" parent="nPNSdhRXmSL_q1nLzJ4B-119">
          <mxGeometry x="274.0377551020408" y="470" width="19.591836734693878" height="20" as="geometry" />
        </mxCell>
        <mxCell id="nPNSdhRXmSL_q1nLzJ4B-142" style="edgeStyle=elbowEdgeStyle;rounded=0;html=1;labelBackgroundColor=none;startArrow=none;startFill=0;startSize=8;endArrow=none;endFill=0;endSize=16;fontFamily=Verdana;fontSize=12;entryX=0;entryY=0.7;entryDx=0;entryDy=0;exitX=0;exitY=0.5;exitDx=0;exitDy=0;" edge="1" parent="nPNSdhRXmSL_q1nLzJ4B-119" source="nPNSdhRXmSL_q1nLzJ4B-141" target="nPNSdhRXmSL_q1nLzJ4B-140">
          <mxGeometry relative="1" as="geometry">
            <mxPoint x="199.99775510204086" y="615" as="targetPoint" />
            <mxPoint x="270" y="383" as="sourcePoint" />
            <Array as="points">
              <mxPoint x="140" y="445" />
            </Array>
          </mxGeometry>
        </mxCell>
        <mxCell id="nPNSdhRXmSL_q1nLzJ4B-143" value="&amp;nbsp;WEB APP&amp;nbsp;" style="edgeLabel;html=1;align=center;verticalAlign=middle;resizable=0;points=[];" connectable="0" vertex="1" parent="nPNSdhRXmSL_q1nLzJ4B-142">
          <mxGeometry x="-0.476" relative="1" as="geometry">
            <mxPoint x="-19" as="offset" />
          </mxGeometry>
        </mxCell>
        <mxCell id="nPNSdhRXmSL_q1nLzJ4B-144" style="edgeStyle=orthogonalEdgeStyle;rounded=0;orthogonalLoop=1;jettySize=auto;html=1;entryX=1;entryY=0.5;entryDx=0;entryDy=0;exitX=1;exitY=0.5;exitDx=0;exitDy=0;dashed=1;" edge="1" parent="nPNSdhRXmSL_q1nLzJ4B-119" source="nPNSdhRXmSL_q1nLzJ4B-140" target="nPNSdhRXmSL_q1nLzJ4B-134">
          <mxGeometry relative="1" as="geometry" />
        </mxCell>
        <mxCell id="nPNSdhRXmSL_q1nLzJ4B-145" style="edgeStyle=orthogonalEdgeStyle;rounded=0;orthogonalLoop=1;jettySize=auto;html=1;entryX=1;entryY=0.5;entryDx=0;entryDy=0;dashed=1;" edge="1" parent="1" source="nPNSdhRXmSL_q1nLzJ4B-112" target="nPNSdhRXmSL_q1nLzJ4B-141">
          <mxGeometry relative="1" as="geometry" />
        </mxCell>
        <mxCell id="nPNSdhRXmSL_q1nLzJ4B-146" value="Port&lt;div&gt;443&lt;/div&gt;" style="edgeLabel;html=1;align=center;verticalAlign=middle;resizable=0;points=[];" connectable="0" vertex="1" parent="nPNSdhRXmSL_q1nLzJ4B-145">
          <mxGeometry x="0.0025" y="-1" relative="1" as="geometry">
            <mxPoint as="offset" />
          </mxGeometry>
        </mxCell>
        <mxCell id="nPNSdhRXmSL_q1nLzJ4B-149" style="edgeStyle=orthogonalEdgeStyle;rounded=0;orthogonalLoop=1;jettySize=auto;html=1;entryX=0;entryY=0;entryDx=0;entryDy=215;entryPerimeter=0;endArrow=none;startFill=0;dashed=1;" edge="1" parent="1" source="UAE8AfMDkym07qdBaAlc-9" target="nPNSdhRXmSL_q1nLzJ4B-73">
          <mxGeometry relative="1" as="geometry" />
        </mxCell>
        <mxCell id="nPNSdhRXmSL_q1nLzJ4B-150" style="edgeStyle=orthogonalEdgeStyle;rounded=0;orthogonalLoop=1;jettySize=auto;html=1;entryX=0;entryY=0;entryDx=0;entryDy=175;entryPerimeter=0;endArrow=none;startFill=0;dashed=1;" edge="1" parent="1" source="nPNSdhRXmSL_q1nLzJ4B-38" target="nPNSdhRXmSL_q1nLzJ4B-121">
          <mxGeometry relative="1" as="geometry" />
        </mxCell>
        <mxCell id="nPNSdhRXmSL_q1nLzJ4B-117" style="edgeStyle=orthogonalEdgeStyle;rounded=0;orthogonalLoop=1;jettySize=auto;html=1;entryX=0.5;entryY=0;entryDx=0;entryDy=0;dashed=1;" edge="1" parent="1" source="nPNSdhRXmSL_q1nLzJ4B-78" target="nPNSdhRXmSL_q1nLzJ4B-128">
          <mxGeometry relative="1" as="geometry" />
        </mxCell>
        <mxCell id="nPNSdhRXmSL_q1nLzJ4B-118" value="Port&lt;div&gt;443&lt;/div&gt;" style="edgeLabel;html=1;align=center;verticalAlign=middle;resizable=0;points=[];" connectable="0" vertex="1" parent="nPNSdhRXmSL_q1nLzJ4B-117">
          <mxGeometry x="-0.129" y="2" relative="1" as="geometry">
            <mxPoint x="-53" y="2" as="offset" />
          </mxGeometry>
        </mxCell>
        <mxCell id="nPNSdhRXmSL_q1nLzJ4B-79" value="&lt;div style=&quot;&quot;&gt;&lt;span style=&quot;background-color: transparent; color: light-dark(rgb(51, 51, 51), rgb(193, 193, 193));&quot;&gt;Requisitos mÃ­nimos&lt;/span&gt;&lt;/div&gt;&lt;div&gt;&lt;ol&gt;&lt;li style=&quot;text-align: left;&quot;&gt;&lt;span style=&quot;background-color: transparent; color: light-dark(rgb(51, 51, 51), rgb(193, 193, 193));&quot;&gt;Navegador: Chrome o Edge.&lt;/span&gt;&lt;/li&gt;&lt;li style=&quot;text-align: left;&quot;&gt;&lt;span style=&quot;background-color: transparent; color: light-dark(rgb(51, 51, 51), rgb(193, 193, 193));&quot;&gt;ConexiÃ³n a internet fuera de la red de Cryo.&lt;/span&gt;&lt;/li&gt;&lt;/ol&gt;&lt;/div&gt;" style="shape=note;whiteSpace=wrap;html=1;backgroundOutline=1;darkOpacity=0.05;fillColor=#f5f5f5;strokeColor=#666666;fontColor=#333333;align=center;" vertex="1" parent="1">
          <mxGeometry x="-330" y="1080" width="199.79" height="120" as="geometry" />
        </mxCell>
        <mxCell id="JIT1qTZZCEro0XSR7wUt-1" value="" style="group;fillColor=default;" connectable="0" vertex="1" parent="1">
          <mxGeometry x="-1080" y="920" width="240.21" height="100" as="geometry" />
        </mxCell>
        <mxCell id="JIT1qTZZCEro0XSR7wUt-2" value="EQUIPO PC" style="verticalAlign=top;align=left;spacingTop=8;spacingLeft=2;spacingRight=12;shape=cube;size=10;direction=south;fontStyle=4;html=1;rounded=0;shadow=0;comic=0;labelBackgroundColor=none;strokeWidth=1;fontFamily=Verdana;fontSize=12;fillColor=light-dark(#e7ffe5, #1f2f1e);strokeColor=#82b366;" vertex="1" parent="JIT1qTZZCEro0XSR7wUt-1">
          <mxGeometry width="240.21" height="100" as="geometry" />
        </mxCell>
        <mxCell id="JIT1qTZZCEro0XSR7wUt-3" value="Navegador Web" style="shape=component;align=left;spacingLeft=36;rounded=0;shadow=0;comic=0;labelBackgroundColor=none;strokeWidth=1;fontFamily=Verdana;fontSize=12;html=1;" vertex="1" parent="JIT1qTZZCEro0XSR7wUt-1">
          <mxGeometry x="40.10000000000002" y="40" width="160" height="45.59" as="geometry" />
        </mxCell>
        <mxCell id="JIT1qTZZCEro0XSR7wUt-4" style="edgeStyle=orthogonalEdgeStyle;rounded=0;orthogonalLoop=1;jettySize=auto;html=1;entryX=0.5;entryY=1;entryDx=0;entryDy=0;dashed=1;exitX=0;exitY=0;exitDx=0;exitDy=115.105;exitPerimeter=0;" edge="1" parent="1" source="JIT1qTZZCEro0XSR7wUt-2" target="nPNSdhRXmSL_q1nLzJ4B-141">
          <mxGeometry relative="1" as="geometry">
            <Array as="points">
              <mxPoint x="-955" y="880" />
              <mxPoint x="-440" y="880" />
              <mxPoint x="-440" y="820" />
              <mxPoint x="-116" y="820" />
            </Array>
          </mxGeometry>
        </mxCell>
        <mxCell id="JIT1qTZZCEro0XSR7wUt-5" value="Port&lt;div&gt;443&lt;/div&gt;" style="edgeLabel;html=1;align=center;verticalAlign=middle;resizable=0;points=[];" connectable="0" vertex="1" parent="JIT1qTZZCEro0XSR7wUt-4">
          <mxGeometry x="-0.919" y="-2" relative="1" as="geometry">
            <mxPoint x="147" as="offset" />
          </mxGeometry>
        </mxCell>
        <mxCell id="JIT1qTZZCEro0XSR7wUt-8" value="&lt;div style=&quot;&quot;&gt;&lt;span style=&quot;background-color: transparent; color: light-dark(rgb(51, 51, 51), rgb(193, 193, 193));&quot;&gt;Requisitos mÃ­nimos&lt;/span&gt;&lt;/div&gt;&lt;div&gt;&lt;ol&gt;&lt;li style=&quot;text-align: left;&quot;&gt;&lt;span style=&quot;background-color: transparent; color: light-dark(rgb(51, 51, 51), rgb(193, 193, 193));&quot;&gt;Navegador: Chrome o Edge.&lt;/span&gt;&lt;/li&gt;&lt;li style=&quot;text-align: left;&quot;&gt;&lt;span style=&quot;background-color: transparent; color: light-dark(rgb(51, 51, 51), rgb(193, 193, 193));&quot;&gt;ConexiÃ³n a internet dentro de la red de Cryo.&lt;/span&gt;&lt;/li&gt;&lt;/ol&gt;&lt;/div&gt;" style="shape=note;whiteSpace=wrap;html=1;backgroundOutline=1;darkOpacity=0.05;fillColor=#f5f5f5;strokeColor=#666666;fontColor=#333333;align=center;" vertex="1" parent="1">
          <mxGeometry x="-1050.21" y="1080" width="199.79" height="120" as="geometry" />
        </mxCell>
        <mxCell id="JIT1qTZZCEro0XSR7wUt-10" style="edgeStyle=orthogonalEdgeStyle;rounded=0;orthogonalLoop=1;jettySize=auto;html=1;entryX=0;entryY=0;entryDx=100;entryDy=125.105;entryPerimeter=0;dashed=1;endArrow=none;startFill=0;" edge="1" parent="1" source="JIT1qTZZCEro0XSR7wUt-8" target="JIT1qTZZCEro0XSR7wUt-2">
          <mxGeometry relative="1" as="geometry" />
        </mxCell>
        <mxCell id="JIT1qTZZCEro0XSR7wUt-11" style="edgeStyle=orthogonalEdgeStyle;rounded=0;orthogonalLoop=1;jettySize=auto;html=1;entryX=1;entryY=1;entryDx=0;entryDy=0;entryPerimeter=0;" edge="1" parent="1" source="JIT1qTZZCEro0XSR7wUt-2" target="nPNSdhRXmSL_q1nLzJ4B-121">
          <mxGeometry relative="1" as="geometry">
            <Array as="points">
              <mxPoint x="-420" y="970" />
              <mxPoint x="-420" y="840" />
            </Array>
          </mxGeometry>
        </mxCell>
        <mxCell id="JIT1qTZZCEro0XSR7wUt-12" value="&amp;nbsp;TCP / IP&amp;nbsp;" style="edgeLabel;html=1;align=center;verticalAlign=middle;resizable=0;points=[];" connectable="0" vertex="1" parent="JIT1qTZZCEro0XSR7wUt-11">
          <mxGeometry x="-0.8112" y="1" relative="1" as="geometry">
            <mxPoint as="offset" />
          </mxGeometry>
        </mxCell>
        <UserObject label="Arquitectura" link="data:page/id,onnsDDGCGnbuztYDNgA7" id="0BMkOznmvWedr3v8D9Mx-1">
          <mxCell style="fontColor=#0000EE;fontStyle=0;rounded=1;overflow=hidden;spacing=10;glass=0;shadow=0;" vertex="1" parent="1">
            <mxGeometry x="-90" width="90" height="40" as="geometry" />
          </mxCell>
        </UserObject>
        <mxCell id="7CvPrZEgKGNEV5rFFs5C-1" value="" style="group" connectable="0" vertex="1" parent="1">
          <mxGeometry x="-1080" y="720" width="240" height="130" as="geometry" />
        </mxCell>
        <mxCell id="nPNSdhRXmSL_q1nLzJ4B-88" value="SRVCORPFIL" style="verticalAlign=top;align=left;spacingTop=8;spacingLeft=2;spacingRight=12;shape=cube;size=10;direction=south;fontStyle=4;html=1;rounded=0;shadow=0;comic=0;labelBackgroundColor=none;strokeWidth=1;fontFamily=Verdana;fontSize=12;fillColor=light-dark(#e5ffe5, #1f2f1e);strokeColor=#82b366;" vertex="1" parent="7CvPrZEgKGNEV5rFFs5C-1">
          <mxGeometry width="240" height="130" as="geometry" />
        </mxCell>
        <mxCell id="nPNSdhRXmSL_q1nLzJ4B-89" value="Sistemas PCC" style="shape=component;align=left;spacingLeft=36;rounded=0;shadow=0;comic=0;labelBackgroundColor=none;strokeWidth=1;fontFamily=Verdana;fontSize=12;html=1;" vertex="1" parent="7CvPrZEgKGNEV5rFFs5C-1">
          <mxGeometry x="80" y="42.200000000000045" width="140" height="45.59" as="geometry" />
        </mxCell>
        <mxCell id="nPNSdhRXmSL_q1nLzJ4B-90" style="edgeStyle=elbowEdgeStyle;rounded=0;html=1;labelBackgroundColor=none;startArrow=none;startFill=0;startSize=8;endArrow=none;endFill=0;endSize=16;fontFamily=Verdana;fontSize=12;entryX=0;entryY=0.3;entryDx=0;entryDy=0;exitX=0;exitY=0.5;exitDx=0;exitDy=0;" edge="1" parent="7CvPrZEgKGNEV5rFFs5C-1" source="nPNSdhRXmSL_q1nLzJ4B-92" target="nPNSdhRXmSL_q1nLzJ4B-89">
          <mxGeometry relative="1" as="geometry">
            <mxPoint x="120.21000000000004" y="76" as="targetPoint" />
            <mxPoint x="69.1932653061225" y="27.199999999999932" as="sourcePoint" />
            <Array as="points">
              <mxPoint x="40" y="70" />
            </Array>
          </mxGeometry>
        </mxCell>
        <mxCell id="nPNSdhRXmSL_q1nLzJ4B-91" value="&amp;nbsp;SMB&amp;nbsp;" style="edgeLabel;html=1;align=center;verticalAlign=middle;resizable=0;points=[];" connectable="0" vertex="1" parent="nPNSdhRXmSL_q1nLzJ4B-90">
          <mxGeometry x="-0.476" relative="1" as="geometry">
            <mxPoint x="24" as="offset" />
          </mxGeometry>
        </mxCell>
        <mxCell id="nPNSdhRXmSL_q1nLzJ4B-92" value="" style="ellipse;whiteSpace=wrap;html=1;rounded=0;shadow=0;comic=0;labelBackgroundColor=none;strokeWidth=1;fontFamily=Verdana;fontSize=12;align=center;" vertex="1" parent="7CvPrZEgKGNEV5rFFs5C-1">
          <mxGeometry x="189.99775510204086" y="100" width="19.591836734693878" height="20" as="geometry" />
        </mxCell>
        <mxCell id="nPNSdhRXmSL_q1nLzJ4B-104" style="edgeStyle=orthogonalEdgeStyle;rounded=0;orthogonalLoop=1;jettySize=auto;html=1;entryX=1;entryY=0.5;entryDx=0;entryDy=0;exitX=0.75;exitY=1;exitDx=0;exitDy=0;dashed=1;" edge="1" parent="1" source="nPNSdhRXmSL_q1nLzJ4B-77" target="nPNSdhRXmSL_q1nLzJ4B-92">
          <mxGeometry relative="1" as="geometry" />
        </mxCell>
        <mxCell id="nPNSdhRXmSL_q1nLzJ4B-105" value="Port&lt;div&gt;445&lt;/div&gt;" style="edgeLabel;html=1;align=center;verticalAlign=middle;resizable=0;points=[];" connectable="0" vertex="1" parent="nPNSdhRXmSL_q1nLzJ4B-104">
          <mxGeometry x="0.6863" y="-3" relative="1" as="geometry">
            <mxPoint x="14" y="3" as="offset" />
          </mxGeometry>
        </mxCell>
      </root>
    </mxGraphModel>
  </diagram>
  <diagram id="CAkbjGYW9U80A9qlaJgm" name="Components_PCC">
    <mxGraphModel grid="1" page="1" gridSize="10" guides="1" tooltips="1" connect="1" arrows="1" fold="1" pageScale="1" pageWidth="1100" pageHeight="850" math="0" shadow="0">
      <root>
        <mxCell id="0" />
        <mxCell id="1" parent="0" />
        <mxCell id="JtKukeAm-CyF3S8iZeFt-1" value="WEB" style="shape=folder;fontStyle=1;tabWidth=110;tabHeight=30;tabPosition=left;html=1;boundedLbl=1;labelInHeader=1;container=1;collapsible=0;whiteSpace=wrap;" vertex="1" parent="1">
          <mxGeometry x="40" y="160" width="240" height="240" as="geometry" />
        </mxCell>
        <mxCell id="JtKukeAm-CyF3S8iZeFt-2" value="PresentaciÃ³n" style="html=1;strokeColor=none;resizeWidth=1;resizeHeight=1;fillColor=none;part=1;connectable=0;allowArrows=0;deletable=0;whiteSpace=wrap;" vertex="1" parent="JtKukeAm-CyF3S8iZeFt-1">
          <mxGeometry width="240" height="50" relative="1" as="geometry">
            <mxPoint y="30" as="offset" />
          </mxGeometry>
        </mxCell>
        <mxCell id="jehiuXcUKL_OOmyikKI6-4" value="PÃ¡ginas.aspx.cs" style="shape=component;align=left;spacingLeft=36;rounded=0;shadow=0;comic=0;labelBackgroundColor=none;strokeWidth=1;fontFamily=Verdana;fontSize=12;html=1;" vertex="1" parent="JtKukeAm-CyF3S8iZeFt-1">
          <mxGeometry x="40" y="160" width="160" height="45.59" as="geometry" />
        </mxCell>
        <mxCell id="jehiuXcUKL_OOmyikKI6-3" value="PÃ¡ginas.aspx" style="shape=component;align=left;spacingLeft=36;rounded=0;shadow=0;comic=0;labelBackgroundColor=none;strokeWidth=1;fontFamily=Verdana;fontSize=12;html=1;" vertex="1" parent="JtKukeAm-CyF3S8iZeFt-1">
          <mxGeometry x="40" y="80" width="160" height="45.59" as="geometry" />
        </mxCell>
        <mxCell id="jehiuXcUKL_OOmyikKI6-7" value="" style="edgeStyle=orthogonalEdgeStyle;rounded=0;orthogonalLoop=1;jettySize=auto;html=1;dashed=1;" edge="1" parent="JtKukeAm-CyF3S8iZeFt-1" source="jehiuXcUKL_OOmyikKI6-3" target="jehiuXcUKL_OOmyikKI6-4">
          <mxGeometry relative="1" as="geometry" />
        </mxCell>
        <mxCell id="jehiuXcUKL_OOmyikKI6-5" value="SER" style="shape=folder;fontStyle=1;tabWidth=110;tabHeight=30;tabPosition=left;html=1;boundedLbl=1;labelInHeader=1;container=1;collapsible=0;whiteSpace=wrap;" vertex="1" parent="1">
          <mxGeometry x="360" y="160" width="240" height="160" as="geometry" />
        </mxCell>
        <mxCell id="jehiuXcUKL_OOmyikKI6-6" value="Acceso a servicios" style="html=1;strokeColor=none;resizeWidth=1;resizeHeight=1;fillColor=none;part=1;connectable=0;allowArrows=0;deletable=0;whiteSpace=wrap;" vertex="1" parent="jehiuXcUKL_OOmyikKI6-5">
          <mxGeometry width="240" height="50" relative="1" as="geometry">
            <mxPoint y="30" as="offset" />
          </mxGeometry>
        </mxCell>
        <mxCell id="jehiuXcUKL_OOmyikKI6-12" value="ClasesSER.cs" style="shape=component;align=left;spacingLeft=36;rounded=0;shadow=0;comic=0;labelBackgroundColor=none;strokeWidth=1;fontFamily=Verdana;fontSize=12;html=1;" vertex="1" parent="jehiuXcUKL_OOmyikKI6-5">
          <mxGeometry x="40" y="81" width="160" height="45.59" as="geometry" />
        </mxCell>
        <mxCell id="jehiuXcUKL_OOmyikKI6-16" value="OBJ" style="shape=folder;fontStyle=1;tabWidth=110;tabHeight=30;tabPosition=left;html=1;boundedLbl=1;labelInHeader=1;container=1;collapsible=0;whiteSpace=wrap;" vertex="1" parent="1">
          <mxGeometry x="360" y="440" width="240" height="160" as="geometry" />
        </mxCell>
        <mxCell id="jehiuXcUKL_OOmyikKI6-17" value="Objetos" style="html=1;strokeColor=none;resizeWidth=1;resizeHeight=1;fillColor=none;part=1;connectable=0;allowArrows=0;deletable=0;whiteSpace=wrap;" vertex="1" parent="jehiuXcUKL_OOmyikKI6-16">
          <mxGeometry width="240" height="50" relative="1" as="geometry">
            <mxPoint y="30" as="offset" />
          </mxGeometry>
        </mxCell>
        <mxCell id="jehiuXcUKL_OOmyikKI6-18" value="Clases.cs" style="shape=component;align=left;spacingLeft=36;rounded=0;shadow=0;comic=0;labelBackgroundColor=none;strokeWidth=1;fontFamily=Verdana;fontSize=12;html=1;" vertex="1" parent="jehiuXcUKL_OOmyikKI6-16">
          <mxGeometry x="40" y="81" width="160" height="45.59" as="geometry" />
        </mxCell>
        <mxCell id="jehiuXcUKL_OOmyikKI6-19" style="edgeStyle=orthogonalEdgeStyle;rounded=0;orthogonalLoop=1;jettySize=auto;html=1;dashed=1;entryX=0.25;entryY=1;entryDx=0;entryDy=0;" edge="1" parent="1" source="jehiuXcUKL_OOmyikKI6-4" target="jehiuXcUKL_OOmyikKI6-12">
          <mxGeometry relative="1" as="geometry" />
        </mxCell>
        <mxCell id="jehiuXcUKL_OOmyikKI6-21" style="edgeStyle=orthogonalEdgeStyle;rounded=0;orthogonalLoop=1;jettySize=auto;html=1;entryX=0.25;entryY=1;entryDx=0;entryDy=0;dashed=1;" edge="1" parent="1" source="jehiuXcUKL_OOmyikKI6-4" target="jehiuXcUKL_OOmyikKI6-18">
          <mxGeometry relative="1" as="geometry" />
        </mxCell>
        <mxCell id="jehiuXcUKL_OOmyikKI6-22" style="edgeStyle=orthogonalEdgeStyle;rounded=0;orthogonalLoop=1;jettySize=auto;html=1;entryX=0.75;entryY=0;entryDx=0;entryDy=0;dashed=1;exitX=0.5;exitY=1;exitDx=0;exitDy=0;" edge="1" parent="1" source="jehiuXcUKL_OOmyikKI6-12" target="jehiuXcUKL_OOmyikKI6-18">
          <mxGeometry relative="1" as="geometry" />
        </mxCell>
        <mxCell id="KhmvEMOSwS_hgIVeIj9n-1" value="&lt;a href=&quot;data:page/id,Cpa7y_rWCMo4vhZeex2k&quot;&gt;WSK&lt;/a&gt;" style="shape=component;align=left;spacingLeft=36;rounded=0;shadow=0;comic=0;labelBackgroundColor=none;strokeWidth=1;fontFamily=Verdana;fontSize=12;html=1;" vertex="1" parent="1">
          <mxGeometry x="760" y="160" width="160" height="45.59" as="geometry" />
        </mxCell>
        <object placeholders="1" c4Name="[Components] Portal de Clientes Cryoinfra - MÃ³dulo PCC" c4Type="ContainerDiagramTitle" c4Description="Diagrama de los componentes del mÃ³dulo PCC" label="&lt;font style=&quot;font-size: 16px&quot;&gt;&lt;b&gt;&lt;div style=&quot;text-align: left&quot;&gt;%c4Name%&lt;/div&gt;&lt;/b&gt;&lt;/font&gt;&lt;div style=&quot;text-align: left&quot;&gt;%c4Description%&lt;/div&gt;" id="rHqHeYt0EW4No2M7png8-1">
          <mxCell style="text;html=1;strokeColor=none;fillColor=#f5f5f5;align=left;verticalAlign=top;whiteSpace=wrap;rounded=0;metaEdit=1;allowArrows=0;resizable=1;rotatable=0;connectable=0;recursiveResize=0;expand=0;pointerEvents=0;points=[[0.25,0,0],[0.5,0,0],[0.75,0,0],[1,0.25,0],[1,0.5,0],[1,0.75,0],[0.75,1,0],[0.5,1,0],[0.25,1,0],[0,0.75,0],[0,0.5,0],[0,0.25,0]];fontColor=#333333;" vertex="1" parent="1">
            <mxGeometry width="1100" height="40" as="geometry" />
          </mxCell>
        </object>
        <UserObject label="General" link="data:page/id,5f0bae14-7c28-e335-631c-24af17079c00" id="4N649qCV_TkaRsbXHuja-2">
          <mxCell style="fontColor=#0000EE;fontStyle=0;rounded=1;overflow=hidden;spacing=10;glass=0;shadow=0;" vertex="1" parent="1">
            <mxGeometry x="1000" width="80" height="40" as="geometry" />
          </mxCell>
        </UserObject>
        <mxCell id="2iGlzdSYwpihwNZjIqXl-1" value="&lt;div style=&quot;&quot;&gt;Componente de pasarela de API atravÃ©s de websockets para el acceso a datos en la red corporativa.&lt;/div&gt;" style="shape=note;whiteSpace=wrap;html=1;backgroundOutline=1;darkOpacity=0.05;fillColor=#f5f5f5;strokeColor=#666666;fontColor=#333333;align=center;" vertex="1" parent="1">
          <mxGeometry x="700" y="399.9999999999999" width="280" height="120" as="geometry" />
        </mxCell>
        <mxCell id="2iGlzdSYwpihwNZjIqXl-2" style="edgeStyle=orthogonalEdgeStyle;rounded=0;orthogonalLoop=1;jettySize=auto;html=1;entryX=0.5;entryY=1;entryDx=0;entryDy=0;endArrow=none;startFill=0;dashed=1;exitX=0.5;exitY=0;exitDx=0;exitDy=0;exitPerimeter=0;" edge="1" parent="1" source="2iGlzdSYwpihwNZjIqXl-1" target="KhmvEMOSwS_hgIVeIj9n-1">
          <mxGeometry relative="1" as="geometry">
            <mxPoint x="590" y="424.99999999999994" as="targetPoint" />
          </mxGeometry>
        </mxCell>
        <mxCell id="BO_QuH2G0cFK1zKeWvHf-1" style="edgeStyle=orthogonalEdgeStyle;rounded=0;orthogonalLoop=1;jettySize=auto;html=1;entryX=0.5;entryY=1;entryDx=0;entryDy=0;dashed=1;" edge="1" parent="1" source="jehiuXcUKL_OOmyikKI6-12" target="c2kcg3v5GlzO2ap9CItF-1">
          <mxGeometry relative="1" as="geometry" />
        </mxCell>
        <mxCell id="c2kcg3v5GlzO2ap9CItF-2" style="edgeStyle=elbowEdgeStyle;rounded=0;html=1;labelBackgroundColor=none;startArrow=none;startFill=0;startSize=8;endArrow=none;endFill=0;endSize=16;fontFamily=Verdana;fontSize=12;exitX=1;exitY=0.5;exitDx=0;exitDy=0;entryX=0;entryY=0.3;entryDx=0;entryDy=0;" edge="1" parent="1" source="c2kcg3v5GlzO2ap9CItF-1" target="KhmvEMOSwS_hgIVeIj9n-1">
          <mxGeometry relative="1" as="geometry">
            <mxPoint x="760" y="170" as="targetPoint" />
            <mxPoint x="769.89" y="103" as="sourcePoint" />
            <Array as="points" />
          </mxGeometry>
        </mxCell>
        <mxCell id="c2kcg3v5GlzO2ap9CItF-3" value="&amp;nbsp;API REST" style="edgeLabel;html=1;align=center;verticalAlign=middle;resizable=0;points=[];" connectable="0" vertex="1" parent="c2kcg3v5GlzO2ap9CItF-2">
          <mxGeometry x="-0.476" relative="1" as="geometry">
            <mxPoint x="15" as="offset" />
          </mxGeometry>
        </mxCell>
        <mxCell id="c2kcg3v5GlzO2ap9CItF-1" value="" style="ellipse;whiteSpace=wrap;html=1;rounded=0;shadow=0;comic=0;labelBackgroundColor=none;strokeWidth=1;fontFamily=Verdana;fontSize=12;align=center;" vertex="1" parent="1">
          <mxGeometry x="649.9977551020409" y="160" width="19.591836734693878" height="20" as="geometry" />
        </mxCell>
      </root>
    </mxGraphModel>
  </diagram>
  <diagram id="vlqLbaqAPyhLbalGMvQW" name="Components_PCCapi">
    <mxGraphModel grid="1" page="1" gridSize="10" guides="1" tooltips="1" connect="1" arrows="1" fold="1" pageScale="1" pageWidth="1100" pageHeight="850" math="0" shadow="0">
      <root>
        <mxCell id="0" />
        <mxCell id="1" parent="0" />
        <mxCell id="SivIRN47h3GnZ2iiS2G0-1" value="API" style="shape=folder;fontStyle=1;tabWidth=110;tabHeight=30;tabPosition=left;html=1;boundedLbl=1;labelInHeader=1;container=1;collapsible=0;whiteSpace=wrap;" vertex="1" parent="1">
          <mxGeometry x="40" y="160" width="240" height="240" as="geometry" />
        </mxCell>
        <mxCell id="SivIRN47h3GnZ2iiS2G0-9" value="DAT" style="shape=folder;fontStyle=1;tabWidth=110;tabHeight=30;tabPosition=left;html=1;boundedLbl=1;labelInHeader=1;container=1;collapsible=0;whiteSpace=wrap;" vertex="1" parent="1">
          <mxGeometry x="680" y="160" width="240" height="160" as="geometry" />
        </mxCell>
        <mxCell id="SivIRN47h3GnZ2iiS2G0-10" value="Acceso a datos" style="html=1;strokeColor=none;resizeWidth=1;resizeHeight=1;fillColor=none;part=1;connectable=0;allowArrows=0;deletable=0;whiteSpace=wrap;" vertex="1" parent="SivIRN47h3GnZ2iiS2G0-9">
          <mxGeometry width="240" height="50" relative="1" as="geometry">
            <mxPoint y="30" as="offset" />
          </mxGeometry>
        </mxCell>
        <mxCell id="SivIRN47h3GnZ2iiS2G0-11" value="ClasesDA.cs" style="shape=component;align=left;spacingLeft=36;rounded=0;shadow=0;comic=0;labelBackgroundColor=none;strokeWidth=1;fontFamily=Verdana;fontSize=12;html=1;" vertex="1" parent="SivIRN47h3GnZ2iiS2G0-9">
          <mxGeometry x="40" y="81" width="160" height="45.59" as="geometry" />
        </mxCell>
        <mxCell id="SivIRN47h3GnZ2iiS2G0-12" value="OBJ" style="shape=folder;fontStyle=1;tabWidth=110;tabHeight=30;tabPosition=left;html=1;boundedLbl=1;labelInHeader=1;container=1;collapsible=0;whiteSpace=wrap;" vertex="1" parent="1">
          <mxGeometry x="360" y="440" width="240" height="160" as="geometry" />
        </mxCell>
        <mxCell id="SivIRN47h3GnZ2iiS2G0-13" value="Objetos" style="html=1;strokeColor=none;resizeWidth=1;resizeHeight=1;fillColor=none;part=1;connectable=0;allowArrows=0;deletable=0;whiteSpace=wrap;" vertex="1" parent="SivIRN47h3GnZ2iiS2G0-12">
          <mxGeometry width="240" height="50" relative="1" as="geometry">
            <mxPoint y="30" as="offset" />
          </mxGeometry>
        </mxCell>
        <mxCell id="SivIRN47h3GnZ2iiS2G0-14" value="Clases.cs" style="shape=component;align=left;spacingLeft=36;rounded=0;shadow=0;comic=0;labelBackgroundColor=none;strokeWidth=1;fontFamily=Verdana;fontSize=12;html=1;" vertex="1" parent="SivIRN47h3GnZ2iiS2G0-12">
          <mxGeometry x="40" y="81" width="160" height="45.59" as="geometry" />
        </mxCell>
        <mxCell id="SivIRN47h3GnZ2iiS2G0-20" value="&lt;a href=&quot;data:page/id,ktTM1KwgM1YZQFVMlrb4&quot;&gt;BD: PCC&lt;/a&gt;" style="shape=component;align=left;spacingLeft=36;rounded=0;shadow=0;comic=0;labelBackgroundColor=none;strokeWidth=1;fontFamily=Verdana;fontSize=12;html=1;" vertex="1" parent="1">
          <mxGeometry x="720" y="440" width="160" height="45.59" as="geometry" />
        </mxCell>
        <mxCell id="SivIRN47h3GnZ2iiS2G0-22" style="edgeStyle=orthogonalEdgeStyle;rounded=0;orthogonalLoop=1;jettySize=auto;html=1;entryX=0.5;entryY=0;entryDx=0;entryDy=0;dashed=1;" edge="1" parent="1" source="SivIRN47h3GnZ2iiS2G0-11" target="SivIRN47h3GnZ2iiS2G0-20">
          <mxGeometry relative="1" as="geometry" />
        </mxCell>
        <mxCell id="3XaOE1GkCM6pBVhNY02l-1" value="PresentaciÃ³n" style="html=1;strokeColor=none;resizeWidth=1;resizeHeight=1;fillColor=none;part=1;connectable=0;allowArrows=0;deletable=0;whiteSpace=wrap;" vertex="1" parent="1">
          <mxGeometry x="40" y="190" width="240" height="50" as="geometry" />
        </mxCell>
        <mxCell id="3XaOE1GkCM6pBVhNY02l-2" value="API REST" style="shape=component;align=left;spacingLeft=36;rounded=0;shadow=0;comic=0;labelBackgroundColor=none;strokeWidth=1;fontFamily=Verdana;fontSize=12;html=1;" vertex="1" parent="1">
          <mxGeometry x="80" y="240" width="160" height="45.59" as="geometry" />
        </mxCell>
        <mxCell id="3XaOE1GkCM6pBVhNY02l-3" value="" style="edgeStyle=orthogonalEdgeStyle;rounded=0;orthogonalLoop=1;jettySize=auto;html=1;dashed=1;exitX=0.5;exitY=1;exitDx=0;exitDy=0;entryX=0.5;entryY=0;entryDx=0;entryDy=0;" edge="1" parent="1" source="3XaOE1GkCM6pBVhNY02l-2" target="3XaOE1GkCM6pBVhNY02l-4">
          <mxGeometry relative="1" as="geometry">
            <mxPoint x="159.99999999999977" y="320" as="targetPoint" />
          </mxGeometry>
        </mxCell>
        <mxCell id="3XaOE1GkCM6pBVhNY02l-5" value="" style="edgeStyle=orthogonalEdgeStyle;rounded=0;orthogonalLoop=1;jettySize=auto;html=1;entryX=0.5;entryY=1;entryDx=0;entryDy=0;exitX=0.5;exitY=0;exitDx=0;exitDy=0;" edge="1" parent="1" source="3XaOE1GkCM6pBVhNY02l-4" target="3XaOE1GkCM6pBVhNY02l-2">
          <mxGeometry relative="1" as="geometry" />
        </mxCell>
        <mxCell id="3XaOE1GkCM6pBVhNY02l-7" style="edgeStyle=orthogonalEdgeStyle;rounded=0;orthogonalLoop=1;jettySize=auto;html=1;entryX=0.5;entryY=1;entryDx=0;entryDy=0;dashed=1;" edge="1" parent="1" source="3XaOE1GkCM6pBVhNY02l-4" target="SivIRN47h3GnZ2iiS2G0-14">
          <mxGeometry relative="1" as="geometry" />
        </mxCell>
        <mxCell id="3XaOE1GkCM6pBVhNY02l-4" value="Controllers.cs" style="shape=component;align=left;spacingLeft=36;rounded=0;shadow=0;comic=0;labelBackgroundColor=none;strokeWidth=1;fontFamily=Verdana;fontSize=12;html=1;" vertex="1" parent="1">
          <mxGeometry x="80" y="320" width="160" height="45.59" as="geometry" />
        </mxCell>
        <mxCell id="3XaOE1GkCM6pBVhNY02l-8" style="edgeStyle=orthogonalEdgeStyle;rounded=0;orthogonalLoop=1;jettySize=auto;html=1;entryX=1;entryY=0.5;entryDx=0;entryDy=0;dashed=1;exitX=1;exitY=0.5;exitDx=0;exitDy=0;" edge="1" parent="1" source="SivIRN47h3GnZ2iiS2G0-11" target="SivIRN47h3GnZ2iiS2G0-14">
          <mxGeometry relative="1" as="geometry" />
        </mxCell>
        <object placeholders="1" c4Name="[Components] Portal de Clientes Cryoinfra - MÃ³dulo PCCapi" c4Type="ContainerDiagramTitle" c4Description="Diagrama de los componentes del API para brindar servicio a la aplicaciÃ³n." label="&lt;font style=&quot;font-size: 16px&quot;&gt;&lt;b&gt;&lt;div style=&quot;text-align: left&quot;&gt;%c4Name%&lt;/div&gt;&lt;/b&gt;&lt;/font&gt;&lt;div style=&quot;text-align: left&quot;&gt;%c4Description%&lt;/div&gt;" id="HernWbXGfzxVh8wkMxF7-1">
          <mxCell style="text;html=1;strokeColor=none;fillColor=#f5f5f5;align=left;verticalAlign=top;whiteSpace=wrap;rounded=0;metaEdit=1;allowArrows=0;resizable=1;rotatable=0;connectable=0;recursiveResize=0;expand=0;pointerEvents=0;points=[[0.25,0,0],[0.5,0,0],[0.75,0,0],[1,0.25,0],[1,0.5,0],[1,0.75,0],[0.75,1,0],[0.5,1,0],[0.25,1,0],[0,0.75,0],[0,0.5,0],[0,0.25,0]];fontColor=#333333;" vertex="1" parent="1">
            <mxGeometry width="1100" height="40" as="geometry" />
          </mxCell>
        </object>
        <UserObject label="General" link="data:page/id,5f0bae14-7c28-e335-631c-24af17079c00" id="Bu1FJL-sj6HF_kfJ3FrP-1">
          <mxCell style="fontColor=#0000EE;fontStyle=0;rounded=1;overflow=hidden;spacing=10;" vertex="1" parent="1">
            <mxGeometry x="1000" width="80" height="40" as="geometry" />
          </mxCell>
        </UserObject>
        <mxCell id="ud9Y5Xc44P3ofOeXFu4J-1" value="NEG" style="shape=folder;fontStyle=1;tabWidth=110;tabHeight=30;tabPosition=left;html=1;boundedLbl=1;labelInHeader=1;container=1;collapsible=0;whiteSpace=wrap;" vertex="1" parent="1">
          <mxGeometry x="360" y="160" width="240" height="160" as="geometry" />
        </mxCell>
        <mxCell id="ud9Y5Xc44P3ofOeXFu4J-2" value="Negocio" style="html=1;strokeColor=none;resizeWidth=1;resizeHeight=1;fillColor=none;part=1;connectable=0;allowArrows=0;deletable=0;whiteSpace=wrap;" vertex="1" parent="ud9Y5Xc44P3ofOeXFu4J-1">
          <mxGeometry width="240" height="50" relative="1" as="geometry">
            <mxPoint y="30" as="offset" />
          </mxGeometry>
        </mxCell>
        <mxCell id="ud9Y5Xc44P3ofOeXFu4J-3" value="ClasesB.cs" style="shape=component;align=left;spacingLeft=36;rounded=0;shadow=0;comic=0;labelBackgroundColor=none;strokeWidth=1;fontFamily=Verdana;fontSize=12;html=1;" vertex="1" parent="ud9Y5Xc44P3ofOeXFu4J-1">
          <mxGeometry x="40" y="81" width="160" height="45.59" as="geometry" />
        </mxCell>
        <mxCell id="3XaOE1GkCM6pBVhNY02l-6" style="edgeStyle=orthogonalEdgeStyle;rounded=0;orthogonalLoop=1;jettySize=auto;html=1;entryX=0.25;entryY=1;entryDx=0;entryDy=0;dashed=1;" edge="1" parent="1" source="3XaOE1GkCM6pBVhNY02l-4" target="ud9Y5Xc44P3ofOeXFu4J-3">
          <mxGeometry relative="1" as="geometry" />
        </mxCell>
        <mxCell id="ud9Y5Xc44P3ofOeXFu4J-6" style="edgeStyle=orthogonalEdgeStyle;rounded=0;orthogonalLoop=1;jettySize=auto;html=1;entryX=0.25;entryY=1;entryDx=0;entryDy=0;dashed=1;" edge="1" parent="1" source="ud9Y5Xc44P3ofOeXFu4J-3" target="SivIRN47h3GnZ2iiS2G0-11">
          <mxGeometry relative="1" as="geometry" />
        </mxCell>
        <mxCell id="ud9Y5Xc44P3ofOeXFu4J-7" style="edgeStyle=orthogonalEdgeStyle;rounded=0;orthogonalLoop=1;jettySize=auto;html=1;entryX=0.75;entryY=0;entryDx=0;entryDy=0;dashed=1;exitX=0.75;exitY=1;exitDx=0;exitDy=0;" edge="1" parent="1" source="ud9Y5Xc44P3ofOeXFu4J-3" target="SivIRN47h3GnZ2iiS2G0-14">
          <mxGeometry relative="1" as="geometry" />
        </mxCell>
      </root>
    </mxGraphModel>
  </diagram>
  <diagram id="ktTM1KwgM1YZQFVMlrb4" name="Components_DataBase">
    <mxGraphModel grid="1" page="1" gridSize="10" guides="1" tooltips="1" connect="1" arrows="1" fold="1" pageScale="1" pageWidth="1100" pageHeight="850" math="0" shadow="0">
      <root>
        <mxCell id="0" />
        <mxCell id="1" parent="0" />
        <mxCell id="bkFc27FORpei3LDc07OG-1" value="BD: SDL" style="shape=folder;fontStyle=1;tabWidth=110;tabHeight=30;tabPosition=left;html=1;boundedLbl=1;labelInHeader=1;container=1;collapsible=0;whiteSpace=wrap;" vertex="1" parent="1">
          <mxGeometry x="40" y="160" width="440" height="480" as="geometry" />
        </mxCell>
        <mxCell id="bkFc27FORpei3LDc07OG-2" value="" style="edgeStyle=orthogonalEdgeStyle;rounded=0;orthogonalLoop=1;jettySize=auto;html=1;dashed=1;" edge="1" parent="bkFc27FORpei3LDc07OG-1">
          <mxGeometry relative="1" as="geometry">
            <mxPoint x="220.0000000000004" y="319.99999999999994" as="targetPoint" />
          </mxGeometry>
        </mxCell>
        <mxCell id="bkFc27FORpei3LDc07OG-3" value="Tables" style="shape=component;align=left;spacingLeft=36;rounded=0;shadow=0;comic=0;labelBackgroundColor=none;strokeWidth=1;fontFamily=Verdana;fontSize=12;html=1;" vertex="1" parent="1">
          <mxGeometry x="280" y="480" width="162" height="45.59" as="geometry" />
        </mxCell>
        <mxCell id="bkFc27FORpei3LDc07OG-4" style="edgeStyle=orthogonalEdgeStyle;rounded=0;orthogonalLoop=1;jettySize=auto;html=1;entryX=0.5;entryY=0;entryDx=0;entryDy=0;exitX=0.5;exitY=1;exitDx=0;exitDy=0;dashed=1;" edge="1" parent="1" source="bkFc27FORpei3LDc07OG-20" target="bkFc27FORpei3LDc07OG-3">
          <mxGeometry relative="1" as="geometry" />
        </mxCell>
        <mxCell id="bkFc27FORpei3LDc07OG-5" style="edgeStyle=orthogonalEdgeStyle;rounded=0;orthogonalLoop=1;jettySize=auto;html=1;entryX=0.5;entryY=0;entryDx=0;entryDy=0;dashed=1;" edge="1" parent="1" source="bkFc27FORpei3LDc07OG-7" target="bkFc27FORpei3LDc07OG-20">
          <mxGeometry relative="1" as="geometry" />
        </mxCell>
        <mxCell id="bkFc27FORpei3LDc07OG-6" style="edgeStyle=orthogonalEdgeStyle;rounded=0;orthogonalLoop=1;jettySize=auto;html=1;entryX=0.75;entryY=0;entryDx=0;entryDy=0;exitX=0.75;exitY=1;exitDx=0;exitDy=0;dashed=1;" edge="1" parent="1" source="bkFc27FORpei3LDc07OG-7" target="bkFc27FORpei3LDc07OG-3">
          <mxGeometry relative="1" as="geometry" />
        </mxCell>
        <mxCell id="bkFc27FORpei3LDc07OG-7" value="Functions" style="shape=component;align=left;spacingLeft=36;rounded=0;shadow=0;comic=0;labelBackgroundColor=none;strokeWidth=1;fontFamily=Verdana;fontSize=12;html=1;" vertex="1" parent="1">
          <mxGeometry x="282" y="320" width="160" height="45.59" as="geometry" />
        </mxCell>
        <mxCell id="bkFc27FORpei3LDc07OG-8" style="edgeStyle=orthogonalEdgeStyle;rounded=0;orthogonalLoop=1;jettySize=auto;html=1;entryX=0.25;entryY=0;entryDx=0;entryDy=0;exitX=0.5;exitY=1;exitDx=0;exitDy=0;dashed=1;" edge="1" parent="1" source="bkFc27FORpei3LDc07OG-16" target="bkFc27FORpei3LDc07OG-3">
          <mxGeometry relative="1" as="geometry">
            <Array as="points">
              <mxPoint x="160" y="460" />
              <mxPoint x="321" y="460" />
            </Array>
          </mxGeometry>
        </mxCell>
        <mxCell id="bkFc27FORpei3LDc07OG-9" style="edgeStyle=orthogonalEdgeStyle;rounded=0;orthogonalLoop=1;jettySize=auto;html=1;entryX=0.25;entryY=0;entryDx=0;entryDy=0;exitX=0.75;exitY=1;exitDx=0;exitDy=0;dashed=1;" edge="1" parent="1" source="bkFc27FORpei3LDc07OG-16" target="bkFc27FORpei3LDc07OG-20">
          <mxGeometry relative="1" as="geometry">
            <Array as="points">
              <mxPoint x="200" y="380" />
              <mxPoint x="322" y="380" />
            </Array>
          </mxGeometry>
        </mxCell>
        <mxCell id="bkFc27FORpei3LDc07OG-10" style="edgeStyle=orthogonalEdgeStyle;rounded=0;orthogonalLoop=1;jettySize=auto;html=1;entryX=0;entryY=0.5;entryDx=0;entryDy=0;dashed=1;exitX=1;exitY=0.5;exitDx=0;exitDy=0;" edge="1" parent="1" source="bkFc27FORpei3LDc07OG-20" target="bkFc27FORpei3LDc07OG-30">
          <mxGeometry relative="1" as="geometry">
            <Array as="points">
              <mxPoint x="460" y="423" />
              <mxPoint x="460" y="223" />
            </Array>
          </mxGeometry>
        </mxCell>
        <mxCell id="bkFc27FORpei3LDc07OG-16" value="StoredProcs" style="shape=component;align=left;spacingLeft=36;rounded=0;shadow=0;comic=0;labelBackgroundColor=none;strokeWidth=1;fontFamily=Verdana;fontSize=12;html=1;" vertex="1" parent="1">
          <mxGeometry x="80" y="240" width="160" height="45.59" as="geometry" />
        </mxCell>
        <mxCell id="bkFc27FORpei3LDc07OG-17" style="edgeStyle=orthogonalEdgeStyle;rounded=0;orthogonalLoop=1;jettySize=auto;html=1;entryX=0.25;entryY=0;entryDx=0;entryDy=0;dashed=1;exitX=1;exitY=0.5;exitDx=0;exitDy=0;" edge="1" parent="1" source="bkFc27FORpei3LDc07OG-16" target="bkFc27FORpei3LDc07OG-7">
          <mxGeometry relative="1" as="geometry" />
        </mxCell>
        <mxCell id="bkFc27FORpei3LDc07OG-18" style="edgeStyle=orthogonalEdgeStyle;rounded=0;orthogonalLoop=1;jettySize=auto;html=1;entryX=0.25;entryY=1;entryDx=0;entryDy=0;dashed=1;exitX=0.25;exitY=0;exitDx=0;exitDy=0;" edge="1" parent="1" source="bkFc27FORpei3LDc07OG-19" target="bkFc27FORpei3LDc07OG-16">
          <mxGeometry relative="1" as="geometry" />
        </mxCell>
        <mxCell id="bkFc27FORpei3LDc07OG-19" value="JOBs" style="shape=component;align=left;spacingLeft=36;rounded=0;shadow=0;comic=0;labelBackgroundColor=none;strokeWidth=1;fontFamily=Verdana;fontSize=12;html=1;" vertex="1" parent="1">
          <mxGeometry x="80" y="480" width="160" height="45.59" as="geometry" />
        </mxCell>
        <mxCell id="bkFc27FORpei3LDc07OG-20" value="Views" style="shape=component;align=left;spacingLeft=36;rounded=0;shadow=0;comic=0;labelBackgroundColor=none;strokeWidth=1;fontFamily=Verdana;fontSize=12;html=1;" vertex="1" parent="1">
          <mxGeometry x="282" y="400" width="160" height="45.59" as="geometry" />
        </mxCell>
        <mxCell id="bkFc27FORpei3LDc07OG-21" value="Datos" style="html=1;strokeColor=none;resizeWidth=1;resizeHeight=1;fillColor=none;part=1;connectable=0;allowArrows=0;deletable=0;whiteSpace=wrap;" vertex="1" parent="1">
          <mxGeometry x="40" y="190" width="440" height="50" as="geometry" />
        </mxCell>
        <mxCell id="bkFc27FORpei3LDc07OG-22" value="JDEdwards" style="shape=component;align=left;spacingLeft=36;rounded=0;shadow=0;comic=0;labelBackgroundColor=none;strokeWidth=1;fontFamily=Verdana;fontSize=12;html=1;" vertex="1" parent="1">
          <mxGeometry x="640" y="200" width="240" height="45.59" as="geometry" />
        </mxCell>
        <mxCell id="bkFc27FORpei3LDc07OG-28" style="edgeStyle=elbowEdgeStyle;rounded=0;html=1;labelBackgroundColor=none;startArrow=none;startFill=0;startSize=8;endArrow=none;endFill=0;endSize=16;fontFamily=Verdana;fontSize=12;entryX=0;entryY=0.7;entryDx=0;entryDy=0;exitX=1;exitY=0.5;exitDx=0;exitDy=0;" edge="1" parent="1" source="bkFc27FORpei3LDc07OG-30" target="bkFc27FORpei3LDc07OG-22">
          <mxGeometry relative="1" as="geometry">
            <mxPoint x="589.79" y="221.59000000000003" as="targetPoint" />
            <mxPoint x="538.7732653061224" y="172.78999999999996" as="sourcePoint" />
          </mxGeometry>
        </mxCell>
        <mxCell id="bkFc27FORpei3LDc07OG-29" value="LINKED SERVER" style="edgeLabel;html=1;align=center;verticalAlign=middle;resizable=0;points=[];" connectable="0" vertex="1" parent="bkFc27FORpei3LDc07OG-28">
          <mxGeometry x="-0.476" relative="1" as="geometry">
            <mxPoint x="19" y="-8" as="offset" />
          </mxGeometry>
        </mxCell>
        <mxCell id="bkFc27FORpei3LDc07OG-30" value="" style="ellipse;whiteSpace=wrap;html=1;rounded=0;shadow=0;comic=0;labelBackgroundColor=none;strokeWidth=1;fontFamily=Verdana;fontSize=12;align=center;" vertex="1" parent="1">
          <mxGeometry x="509.99775510204074" y="212.79000000000002" width="19.591836734693878" height="20" as="geometry" />
        </mxCell>
        <object placeholders="1" c4Name="[Components] Portal de Clientes Cryoinfra - MÃ³dulo DataBase" c4Type="ContainerDiagramTitle" c4Description="Diagrama de los componentes del mÃ³dulo de persistencia en base de datos" label="&lt;font style=&quot;font-size: 16px&quot;&gt;&lt;b&gt;&lt;div style=&quot;text-align: left&quot;&gt;%c4Name%&lt;/div&gt;&lt;/b&gt;&lt;/font&gt;&lt;div style=&quot;text-align: left&quot;&gt;%c4Description%&lt;/div&gt;" id="CTCk9gsrNobpiRJdrIPh-1">
          <mxCell style="text;html=1;strokeColor=none;fillColor=#f5f5f5;align=left;verticalAlign=top;whiteSpace=wrap;rounded=0;metaEdit=1;allowArrows=0;resizable=1;rotatable=0;connectable=0;recursiveResize=0;expand=0;pointerEvents=0;points=[[0.25,0,0],[0.5,0,0],[0.75,0,0],[1,0.25,0],[1,0.5,0],[1,0.75,0],[0.75,1,0],[0.5,1,0],[0.25,1,0],[0,0.75,0],[0,0.5,0],[0,0.25,0]];fontColor=#333333;" vertex="1" parent="1">
            <mxGeometry width="1100" height="40" as="geometry" />
          </mxCell>
        </object>
        <UserObject label="General" link="data:page/id,5f0bae14-7c28-e335-631c-24af17079c00" id="ciA9hSS2Cn_1C2hCkSJn-1">
          <mxCell style="fontColor=#0000EE;fontStyle=0;rounded=1;overflow=hidden;spacing=10;" vertex="1" parent="1">
            <mxGeometry x="1000" width="80" height="40" as="geometry" />
          </mxCell>
        </UserObject>
      </root>
    </mxGraphModel>
  </diagram>
  <diagram name="Components_CryoDAC-PCC" id="0Q_CsHpoBdwbyoTImUB6">
    <mxGraphModel dx="1434" dy="836" grid="1" gridSize="10" guides="1" tooltips="1" connect="1" arrows="1" fold="1" page="1" pageScale="1" pageWidth="1100" pageHeight="850" math="0" shadow="0">
      <root>
        <mxCell id="8FVhP7ZAM9HhI28cUb9t-0" />
        <mxCell id="8FVhP7ZAM9HhI28cUb9t-1" parent="8FVhP7ZAM9HhI28cUb9t-0" />
        <mxCell id="8FVhP7ZAM9HhI28cUb9t-2" value="&lt;span style=&quot;font-family: Verdana; font-weight: 400; text-align: left; text-wrap-mode: nowrap; text-decoration-line: underline;&quot;&gt;CryoDAC&lt;/span&gt;" style="shape=folder;fontStyle=1;tabWidth=110;tabHeight=30;tabPosition=left;html=1;boundedLbl=1;labelInHeader=1;container=1;collapsible=0;whiteSpace=wrap;" parent="8FVhP7ZAM9HhI28cUb9t-1" vertex="1">
          <mxGeometry x="40" y="160" width="280" height="320" as="geometry" />
        </mxCell>
        <mxCell id="8FVhP7ZAM9HhI28cUb9t-3" value="" style="edgeStyle=orthogonalEdgeStyle;rounded=0;orthogonalLoop=1;jettySize=auto;html=1;dashed=1;" parent="8FVhP7ZAM9HhI28cUb9t-2" edge="1">
          <mxGeometry relative="1" as="geometry">
            <mxPoint x="140.00000000000026" y="213.3333333333333" as="targetPoint" />
          </mxGeometry>
        </mxCell>
        <object placeholders="1" c4Name="[Components] Portal de Clientes Cryoinfra - MÃ³dulo CryoDAC-PCC" c4Type="ContainerDiagramTitle" c4Description="Diagrama de los componentes del mÃ³dulo del cliente con acceso a datos del PCC" label="&lt;font style=&quot;font-size: 16px&quot;&gt;&lt;b&gt;&lt;div style=&quot;text-align: left&quot;&gt;%c4Name%&lt;/div&gt;&lt;/b&gt;&lt;/font&gt;&lt;div style=&quot;text-align: left&quot;&gt;%c4Description%&lt;/div&gt;" id="8FVhP7ZAM9HhI28cUb9t-5">
          <mxCell style="text;html=1;strokeColor=none;fillColor=#f5f5f5;align=left;verticalAlign=top;whiteSpace=wrap;rounded=0;metaEdit=1;allowArrows=0;resizable=1;rotatable=0;connectable=0;recursiveResize=0;expand=0;pointerEvents=0;points=[[0.25,0,0],[0.5,0,0],[0.75,0,0],[1,0.25,0],[1,0.5,0],[1,0.75,0],[0.75,1,0],[0.5,1,0],[0.25,1,0],[0,0.75,0],[0,0.5,0],[0,0.25,0]];fontColor=#333333;" parent="8FVhP7ZAM9HhI28cUb9t-1" vertex="1">
            <mxGeometry width="1100" height="40" as="geometry" />
          </mxCell>
        </object>
        <mxCell id="8FVhP7ZAM9HhI28cUb9t-6" value="Datos" style="html=1;strokeColor=none;resizeWidth=1;resizeHeight=1;fillColor=none;part=1;connectable=0;allowArrows=0;deletable=0;whiteSpace=wrap;" parent="8FVhP7ZAM9HhI28cUb9t-1" vertex="1">
          <mxGeometry x="40" y="190" width="280" height="50" as="geometry" />
        </mxCell>
        <mxCell id="8FVhP7ZAM9HhI28cUb9t-7" value="HTTP Proxy" style="shape=component;align=left;spacingLeft=36;rounded=0;shadow=0;comic=0;labelBackgroundColor=none;strokeWidth=1;fontFamily=Verdana;fontSize=12;html=1;" parent="8FVhP7ZAM9HhI28cUb9t-1" vertex="1">
          <mxGeometry x="80" y="402.2" width="160" height="45.59" as="geometry" />
        </mxCell>
        <mxCell id="8FVhP7ZAM9HhI28cUb9t-8" value="WSS Client" style="shape=component;align=left;spacingLeft=36;rounded=0;shadow=0;comic=0;labelBackgroundColor=none;strokeWidth=1;fontFamily=Verdana;fontSize=12;html=1;" parent="8FVhP7ZAM9HhI28cUb9t-1" vertex="1">
          <mxGeometry x="80" y="320" width="160" height="45.59" as="geometry" />
        </mxCell>
        <mxCell id="8FVhP7ZAM9HhI28cUb9t-9" style="edgeStyle=orthogonalEdgeStyle;rounded=0;orthogonalLoop=1;jettySize=auto;html=1;entryX=1;entryY=0.5;entryDx=0;entryDy=0;exitX=1;exitY=0.5;exitDx=0;exitDy=0;dashed=1;" parent="8FVhP7ZAM9HhI28cUb9t-1" source="8FVhP7ZAM9HhI28cUb9t-11" target="8FVhP7ZAM9HhI28cUb9t-7" edge="1">
          <mxGeometry relative="1" as="geometry" />
        </mxCell>
        <mxCell id="8FVhP7ZAM9HhI28cUb9t-10" style="edgeStyle=orthogonalEdgeStyle;rounded=0;orthogonalLoop=1;jettySize=auto;html=1;entryX=0.5;entryY=0;entryDx=0;entryDy=0;dashed=1;" parent="8FVhP7ZAM9HhI28cUb9t-1" source="8FVhP7ZAM9HhI28cUb9t-11" target="8FVhP7ZAM9HhI28cUb9t-8" edge="1">
          <mxGeometry relative="1" as="geometry" />
        </mxCell>
        <mxCell id="8FVhP7ZAM9HhI28cUb9t-11" value="&lt;span style=&quot;text-decoration-line: underline;&quot;&gt;Hosted Service&lt;/span&gt;" style="shape=component;align=left;spacingLeft=36;rounded=0;shadow=0;comic=0;labelBackgroundColor=none;strokeWidth=1;fontFamily=Verdana;fontSize=12;html=1;" parent="8FVhP7ZAM9HhI28cUb9t-1" vertex="1">
          <mxGeometry x="80" y="240" width="160" height="45.59" as="geometry" />
        </mxCell>
        <UserObject label="General" link="data:page/id,5f0bae14-7c28-e335-631c-24af17079c00" id="umW6aD9b-ITvSvMP8ZlY-0">
          <mxCell style="fontColor=#0000EE;fontStyle=0;rounded=1;overflow=hidden;spacing=10;" vertex="1" parent="8FVhP7ZAM9HhI28cUb9t-1">
            <mxGeometry x="1000" width="80" height="40" as="geometry" />
          </mxCell>
        </UserObject>
      </root>
    </mxGraphModel>
  </diagram>
  <diagram name="Components_CryoAPI-PCC" id="Cpa7y_rWCMo4vhZeex2k">
    <mxGraphModel dx="1434" dy="836" grid="1" gridSize="10" guides="1" tooltips="1" connect="1" arrows="1" fold="1" page="1" pageScale="1" pageWidth="1100" pageHeight="850" math="0" shadow="0">
      <root>
        <mxCell id="qR9_prlRkafySOtsfSMY-0" />
        <mxCell id="qR9_prlRkafySOtsfSMY-1" parent="qR9_prlRkafySOtsfSMY-0" />
        <mxCell id="qR9_prlRkafySOtsfSMY-2" value="&lt;span style=&quot;font-family: Verdana; font-weight: 400; text-align: left; text-wrap-mode: nowrap; text-decoration-line: underline;&quot;&gt;CryoDAC&lt;/span&gt;" style="shape=folder;fontStyle=1;tabWidth=110;tabHeight=30;tabPosition=left;html=1;boundedLbl=1;labelInHeader=1;container=1;collapsible=0;whiteSpace=wrap;" parent="qR9_prlRkafySOtsfSMY-1" vertex="1">
          <mxGeometry x="40" y="160" width="280" height="320" as="geometry" />
        </mxCell>
        <mxCell id="qR9_prlRkafySOtsfSMY-3" value="" style="edgeStyle=orthogonalEdgeStyle;rounded=0;orthogonalLoop=1;jettySize=auto;html=1;dashed=1;" parent="qR9_prlRkafySOtsfSMY-2" edge="1">
          <mxGeometry relative="1" as="geometry">
            <mxPoint x="140.00000000000026" y="213.3333333333333" as="targetPoint" />
          </mxGeometry>
        </mxCell>
        <object placeholders="1" c4Name="[Components] Portal de Clientes Cryoinfra - MÃ³dulo CryoAPI-PCC" c4Type="ContainerDiagramTitle" c4Description="Diagrama de los componentes del mÃ³dulo del cliente con acceso a datos del PCC en la DMZ" label="&lt;font style=&quot;font-size: 16px&quot;&gt;&lt;b&gt;&lt;div style=&quot;text-align: left&quot;&gt;%c4Name%&lt;/div&gt;&lt;/b&gt;&lt;/font&gt;&lt;div style=&quot;text-align: left&quot;&gt;%c4Description%&lt;/div&gt;" id="qR9_prlRkafySOtsfSMY-5">
          <mxCell style="text;html=1;strokeColor=none;fillColor=#f5f5f5;align=left;verticalAlign=top;whiteSpace=wrap;rounded=0;metaEdit=1;allowArrows=0;resizable=1;rotatable=0;connectable=0;recursiveResize=0;expand=0;pointerEvents=0;points=[[0.25,0,0],[0.5,0,0],[0.75,0,0],[1,0.25,0],[1,0.5,0],[1,0.75,0],[0.75,1,0],[0.5,1,0],[0.25,1,0],[0,0.75,0],[0,0.5,0],[0,0.25,0]];fontColor=#333333;" parent="qR9_prlRkafySOtsfSMY-1" vertex="1">
            <mxGeometry width="1100" height="40" as="geometry" />
          </mxCell>
        </object>
        <mxCell id="qR9_prlRkafySOtsfSMY-6" value="Datos" style="html=1;strokeColor=none;resizeWidth=1;resizeHeight=1;fillColor=none;part=1;connectable=0;allowArrows=0;deletable=0;whiteSpace=wrap;" parent="qR9_prlRkafySOtsfSMY-1" vertex="1">
          <mxGeometry x="40" y="190" width="280" height="50" as="geometry" />
        </mxCell>
        <mxCell id="qR9_prlRkafySOtsfSMY-7" value="HTTP Proxy" style="shape=component;align=left;spacingLeft=36;rounded=0;shadow=0;comic=0;labelBackgroundColor=none;strokeWidth=1;fontFamily=Verdana;fontSize=12;html=1;" parent="qR9_prlRkafySOtsfSMY-1" vertex="1">
          <mxGeometry x="80" y="402.2" width="160" height="45.59" as="geometry" />
        </mxCell>
        <mxCell id="qR9_prlRkafySOtsfSMY-8" value="WSS Client" style="shape=component;align=left;spacingLeft=36;rounded=0;shadow=0;comic=0;labelBackgroundColor=none;strokeWidth=1;fontFamily=Verdana;fontSize=12;html=1;" parent="qR9_prlRkafySOtsfSMY-1" vertex="1">
          <mxGeometry x="80" y="320" width="160" height="45.59" as="geometry" />
        </mxCell>
        <mxCell id="qR9_prlRkafySOtsfSMY-9" style="edgeStyle=orthogonalEdgeStyle;rounded=0;orthogonalLoop=1;jettySize=auto;html=1;entryX=1;entryY=0.5;entryDx=0;entryDy=0;exitX=1;exitY=0.5;exitDx=0;exitDy=0;dashed=1;" parent="qR9_prlRkafySOtsfSMY-1" source="qR9_prlRkafySOtsfSMY-11" target="qR9_prlRkafySOtsfSMY-7" edge="1">
          <mxGeometry relative="1" as="geometry" />
        </mxCell>
        <mxCell id="qR9_prlRkafySOtsfSMY-10" style="edgeStyle=orthogonalEdgeStyle;rounded=0;orthogonalLoop=1;jettySize=auto;html=1;entryX=0.5;entryY=0;entryDx=0;entryDy=0;dashed=1;" parent="qR9_prlRkafySOtsfSMY-1" source="qR9_prlRkafySOtsfSMY-11" target="qR9_prlRkafySOtsfSMY-8" edge="1">
          <mxGeometry relative="1" as="geometry" />
        </mxCell>
        <mxCell id="qR9_prlRkafySOtsfSMY-11" value="&lt;span style=&quot;text-decoration-line: underline;&quot;&gt;Hosted Service&lt;/span&gt;" style="shape=component;align=left;spacingLeft=36;rounded=0;shadow=0;comic=0;labelBackgroundColor=none;strokeWidth=1;fontFamily=Verdana;fontSize=12;html=1;" parent="qR9_prlRkafySOtsfSMY-1" vertex="1">
          <mxGeometry x="80" y="240" width="160" height="45.59" as="geometry" />
        </mxCell>
        <UserObject label="General" link="data:page/id,5f0bae14-7c28-e335-631c-24af17079c00" id="IkoDEOOTet7RgWyk9PdQ-0">
          <mxCell style="fontColor=#0000EE;fontStyle=0;rounded=1;overflow=hidden;spacing=10;" vertex="1" parent="qR9_prlRkafySOtsfSMY-1">
            <mxGeometry x="1000" width="80" height="40" as="geometry" />
          </mxCell>
        </UserObject>
      </root>
    </mxGraphModel>
  </diagram>
  <diagram name=" Architecture_general_4all" id="IyRlA6G07nEj_l-mfGsr">
    <mxGraphModel grid="1" page="1" gridSize="10" guides="1" tooltips="1" connect="1" arrows="1" fold="1" pageScale="1" pageWidth="1100" pageHeight="850" math="0" shadow="0">
      <root>
        <mxCell id="8yPDF9NcNlcg0z_hkgfe-0" />
        <mxCell id="8yPDF9NcNlcg0z_hkgfe-1" parent="8yPDF9NcNlcg0z_hkgfe-0" />
        <mxCell id="8yPDF9NcNlcg0z_hkgfe-2" value="" style="rounded=0;whiteSpace=wrap;html=1;fillColor=light-dark(#f0fff0, #002b00);strokeColor=none;verticalAlign=top;fontStyle=1;fontSize=12;" parent="8yPDF9NcNlcg0z_hkgfe-1" vertex="1">
          <mxGeometry x="620" y="590" width="260" height="490" as="geometry" />
        </mxCell>
        <mxCell id="8yPDF9NcNlcg0z_hkgfe-3" value="INTRANET" style="rounded=0;whiteSpace=wrap;html=1;fillColor=light-dark(#f0fff0, #002b00);strokeColor=none;verticalAlign=top;fontStyle=1;fontSize=14;fontColor=#336600;" parent="8yPDF9NcNlcg0z_hkgfe-1" vertex="1">
          <mxGeometry x="360" y="80" width="260" height="1000" as="geometry" />
        </mxCell>
        <mxCell id="8yPDF9NcNlcg0z_hkgfe-4" value="INTERNET" style="rounded=0;whiteSpace=wrap;html=1;verticalAlign=top;fontStyle=1;fontSize=14;fillColor=light-dark(#fffafa, #ededed);strokeColor=none;fontColor=light-dark(#660000,#EDEDED);" parent="8yPDF9NcNlcg0z_hkgfe-1" vertex="1">
          <mxGeometry x="620" y="80" width="260" height="510" as="geometry" />
        </mxCell>
        <mxCell id="8yPDF9NcNlcg0z_hkgfe-5" style="edgeStyle=orthogonalEdgeStyle;rounded=0;orthogonalLoop=1;jettySize=auto;html=1;entryX=0.25;entryY=0;entryDx=0;entryDy=0;exitX=0.25;exitY=1;exitDx=0;exitDy=0;strokeWidth=2;endArrow=open;endFill=0;startArrow=open;startFill=0;" parent="8yPDF9NcNlcg0z_hkgfe-1" source="8yPDF9NcNlcg0z_hkgfe-27" edge="1">
          <mxGeometry relative="1" as="geometry">
            <mxPoint x="490" y="319.9999999999998" as="targetPoint" />
          </mxGeometry>
        </mxCell>
        <mxCell id="8yPDF9NcNlcg0z_hkgfe-6" style="edgeStyle=orthogonalEdgeStyle;rounded=0;orthogonalLoop=1;jettySize=auto;html=1;entryX=0.75;entryY=1;entryDx=0;entryDy=0;exitX=0.75;exitY=0;exitDx=0;exitDy=0;strokeWidth=2;endArrow=open;endFill=0;startArrow=open;startFill=0;" parent="8yPDF9NcNlcg0z_hkgfe-1" target="8yPDF9NcNlcg0z_hkgfe-27" edge="1">
          <mxGeometry relative="1" as="geometry">
            <mxPoint x="750" y="319.9999999999998" as="sourcePoint" />
          </mxGeometry>
        </mxCell>
        <mxCell id="8yPDF9NcNlcg0z_hkgfe-7" value="" style="rounded=0;whiteSpace=wrap;html=1;fillColor=light-dark(#ebf3ff, #1d293b);strokeColor=#6c8ebf;" parent="8yPDF9NcNlcg0z_hkgfe-1" vertex="1">
          <mxGeometry x="360" y="800" width="520" height="80" as="geometry" />
        </mxCell>
        <mxCell id="8yPDF9NcNlcg0z_hkgfe-8" value="Agentes de servicios" style="rounded=1;whiteSpace=wrap;html=1;fillColor=light-dark(#ebf3ff, #1d293b);strokeColor=#6c8ebf;fontStyle=1" parent="8yPDF9NcNlcg0z_hkgfe-1" vertex="1">
          <mxGeometry x="640" y="825" width="200" height="30" as="geometry" />
        </mxCell>
        <mxCell id="8yPDF9NcNlcg0z_hkgfe-9" value="Componentes de acceso a datos" style="rounded=1;whiteSpace=wrap;html=1;fillColor=light-dark(#ebf3ff, #1d293b);strokeColor=#6c8ebf;fontStyle=1" parent="8yPDF9NcNlcg0z_hkgfe-1" vertex="1">
          <mxGeometry x="400" y="825" width="200" height="30" as="geometry" />
        </mxCell>
        <mxCell id="8yPDF9NcNlcg0z_hkgfe-10" value="Servicios" style="rounded=1;whiteSpace=wrap;html=1;verticalAlign=top;spacingTop=10;fillColor=light-dark(#ecf3ff, #1d293b);strokeColor=#6c8ebf;fontStyle=1;" parent="8yPDF9NcNlcg0z_hkgfe-1" vertex="1">
          <mxGeometry x="560" y="920" width="120" height="140" as="geometry" />
        </mxCell>
        <mxCell id="8yPDF9NcNlcg0z_hkgfe-11" value="OrÃ­genes de datos" style="rounded=1;whiteSpace=wrap;html=1;verticalAlign=top;spacingTop=10;fillColor=light-dark(#ecf3ff, #1d293b);strokeColor=#6c8ebf;fontStyle=1;" parent="8yPDF9NcNlcg0z_hkgfe-1" vertex="1">
          <mxGeometry x="400" y="920" width="120" height="140" as="geometry" />
        </mxCell>
        <mxCell id="8yPDF9NcNlcg0z_hkgfe-12" value="Archivos" style="rounded=1;whiteSpace=wrap;html=1;verticalAlign=top;spacingTop=10;fillColor=light-dark(#ecf3ff, #1d293b);strokeColor=#6c8ebf;fontStyle=1;" parent="8yPDF9NcNlcg0z_hkgfe-1" vertex="1">
          <mxGeometry x="720" y="920" width="120" height="140" as="geometry" />
        </mxCell>
        <mxCell id="8yPDF9NcNlcg0z_hkgfe-13" value="" style="shape=cylinder3;whiteSpace=wrap;html=1;boundedLbl=1;backgroundOutline=1;size=15;fillColor=#ffe6cc;strokeColor=#d79b00;" parent="8yPDF9NcNlcg0z_hkgfe-1" vertex="1">
          <mxGeometry x="430" y="960" width="60" height="80" as="geometry" />
        </mxCell>
        <mxCell id="8yPDF9NcNlcg0z_hkgfe-14" value="" style="aspect=fixed;sketch=0;html=1;dashed=0;whitespace=wrap;verticalLabelPosition=bottom;verticalAlign=top;fillColor=#2875E2;strokeColor=#ffffff;points=[[0.005,0.63,0],[0.1,0.2,0],[0.9,0.2,0],[0.5,0,0],[0.995,0.63,0],[0.72,0.99,0],[0.5,1,0],[0.28,0.99,0]];shape=mxgraph.kubernetes.icon2;prIcon=api" parent="8yPDF9NcNlcg0z_hkgfe-1" vertex="1">
          <mxGeometry x="575.8399999999999" y="960" width="83.33" height="80" as="geometry" />
        </mxCell>
        <mxCell id="8yPDF9NcNlcg0z_hkgfe-15" value="" style="sketch=0;outlineConnect=0;fontColor=#232F3E;gradientColor=none;fillColor=#7AA116;strokeColor=none;dashed=0;verticalLabelPosition=bottom;verticalAlign=top;align=center;html=1;fontSize=12;fontStyle=0;aspect=fixed;pointerEvents=1;shape=mxgraph.aws4.file_system;" parent="8yPDF9NcNlcg0z_hkgfe-1" vertex="1">
          <mxGeometry x="742.5999999999999" y="970" width="74.8" height="70" as="geometry" />
        </mxCell>
        <mxCell id="8yPDF9NcNlcg0z_hkgfe-16" style="edgeStyle=orthogonalEdgeStyle;rounded=0;orthogonalLoop=1;jettySize=auto;html=1;entryX=0.25;entryY=0;entryDx=0;entryDy=0;strokeWidth=2;endArrow=open;endFill=0;" parent="8yPDF9NcNlcg0z_hkgfe-1" target="8yPDF9NcNlcg0z_hkgfe-7" edge="1">
          <mxGeometry relative="1" as="geometry">
            <mxPoint x="490" y="760" as="sourcePoint" />
            <mxPoint x="500" y="730" as="targetPoint" />
          </mxGeometry>
        </mxCell>
        <mxCell id="8yPDF9NcNlcg0z_hkgfe-17" style="edgeStyle=orthogonalEdgeStyle;rounded=0;orthogonalLoop=1;jettySize=auto;html=1;entryX=0.75;entryY=1;entryDx=0;entryDy=0;exitX=0.75;exitY=0;exitDx=0;exitDy=0;strokeWidth=2;endArrow=open;endFill=0;" parent="8yPDF9NcNlcg0z_hkgfe-1" source="8yPDF9NcNlcg0z_hkgfe-7" target="8yPDF9NcNlcg0z_hkgfe-64" edge="1">
          <mxGeometry relative="1" as="geometry">
            <mxPoint x="760" y="730" as="sourcePoint" />
            <mxPoint x="750" y="760" as="targetPoint" />
          </mxGeometry>
        </mxCell>
        <mxCell id="8yPDF9NcNlcg0z_hkgfe-18" value="" style="rounded=0;whiteSpace=wrap;html=1;fillColor=#f5f5f5;strokeColor=#666666;fontColor=#333333;" parent="8yPDF9NcNlcg0z_hkgfe-1" vertex="1">
          <mxGeometry x="920" y="320" width="150" height="560" as="geometry" />
        </mxCell>
        <mxCell id="8yPDF9NcNlcg0z_hkgfe-19" value="AdministraciÃ³n operacional" style="rounded=1;whiteSpace=wrap;html=1;fillColor=#f5f5f5;strokeColor=#666666;fontStyle=1;rotation=90;fontColor=#333333;" parent="8yPDF9NcNlcg0z_hkgfe-1" vertex="1">
          <mxGeometry x="755" y="583.63" width="480" height="30.04" as="geometry" />
        </mxCell>
        <mxCell id="8yPDF9NcNlcg0z_hkgfe-20" value="Seguridad" style="rounded=1;whiteSpace=wrap;html=1;fillColor=#f5f5f5;strokeColor=#666666;fontStyle=1;rotation=90;fontColor=#333333;" parent="8yPDF9NcNlcg0z_hkgfe-1" vertex="1">
          <mxGeometry x="800" y="584.29" width="482.12" height="29.38" as="geometry" />
        </mxCell>
        <mxCell id="8yPDF9NcNlcg0z_hkgfe-21" style="edgeStyle=orthogonalEdgeStyle;rounded=0;orthogonalLoop=1;jettySize=auto;html=1;entryX=0.808;entryY=0.995;entryDx=0;entryDy=0;exitX=0.5;exitY=0;exitDx=0;exitDy=0;strokeWidth=2;endArrow=open;endFill=0;startArrow=open;startFill=0;entryPerimeter=0;" parent="8yPDF9NcNlcg0z_hkgfe-1" source="8yPDF9NcNlcg0z_hkgfe-12" target="8yPDF9NcNlcg0z_hkgfe-7" edge="1">
          <mxGeometry relative="1" as="geometry">
            <mxPoint x="760" y="810" as="sourcePoint" />
            <mxPoint x="760" y="770" as="targetPoint" />
          </mxGeometry>
        </mxCell>
        <mxCell id="8yPDF9NcNlcg0z_hkgfe-22" style="edgeStyle=orthogonalEdgeStyle;rounded=0;orthogonalLoop=1;jettySize=auto;html=1;entryX=0.5;entryY=1;entryDx=0;entryDy=0;exitX=0.5;exitY=0;exitDx=0;exitDy=0;strokeWidth=2;endArrow=open;endFill=0;startArrow=open;startFill=0;" parent="8yPDF9NcNlcg0z_hkgfe-1" source="8yPDF9NcNlcg0z_hkgfe-10" target="8yPDF9NcNlcg0z_hkgfe-7" edge="1">
          <mxGeometry relative="1" as="geometry">
            <mxPoint x="790" y="970" as="sourcePoint" />
            <mxPoint x="810" y="927" as="targetPoint" />
          </mxGeometry>
        </mxCell>
        <mxCell id="8yPDF9NcNlcg0z_hkgfe-23" style="edgeStyle=orthogonalEdgeStyle;rounded=0;orthogonalLoop=1;jettySize=auto;html=1;entryX=0.191;entryY=0.996;entryDx=0;entryDy=0;exitX=0.5;exitY=0;exitDx=0;exitDy=0;strokeWidth=2;endArrow=open;endFill=0;startArrow=open;startFill=0;entryPerimeter=0;" parent="8yPDF9NcNlcg0z_hkgfe-1" source="8yPDF9NcNlcg0z_hkgfe-11" target="8yPDF9NcNlcg0z_hkgfe-7" edge="1">
          <mxGeometry relative="1" as="geometry">
            <mxPoint x="630" y="970" as="sourcePoint" />
            <mxPoint x="630" y="930" as="targetPoint" />
          </mxGeometry>
        </mxCell>
        <object placeholders="1" c4Name="[Architecture] Arquitectura en capas de servicio" c4Type="ContainerDiagramTitle" c4Description="Arquitectura general" label="&lt;font style=&quot;font-size: 16px&quot;&gt;&lt;b&gt;&lt;div style=&quot;text-align: left&quot;&gt;%c4Name%&lt;/div&gt;&lt;/b&gt;&lt;/font&gt;&lt;div style=&quot;text-align: left&quot;&gt;%c4Description%&lt;/div&gt;" id="8yPDF9NcNlcg0z_hkgfe-24">
          <mxCell style="text;html=1;strokeColor=none;fillColor=#f5f5f5;align=left;verticalAlign=top;whiteSpace=wrap;rounded=0;metaEdit=1;allowArrows=0;resizable=1;rotatable=0;connectable=0;recursiveResize=0;expand=0;pointerEvents=0;points=[[0.25,0,0],[0.5,0,0],[0.75,0,0],[1,0.25,0],[1,0.5,0],[1,0.75,0],[0.75,1,0],[0.5,1,0],[0.25,1,0],[0,0.75,0],[0,0.5,0],[0,0.25,0]];fontColor=#333333;" parent="8yPDF9NcNlcg0z_hkgfe-1" vertex="1">
            <mxGeometry width="1100" height="40" as="geometry" />
          </mxCell>
        </object>
        <UserObject label="General" link="data:page/id,5f0bae14-7c28-e335-631c-24af17079c00" id="8yPDF9NcNlcg0z_hkgfe-25">
          <mxCell style="fontColor=#0000EE;fontStyle=0;rounded=1;overflow=hidden;spacing=10;" parent="8yPDF9NcNlcg0z_hkgfe-1" vertex="1">
            <mxGeometry x="1000" width="80" height="40" as="geometry" />
          </mxCell>
        </UserObject>
        <mxCell id="8yPDF9NcNlcg0z_hkgfe-26" value="" style="group" parent="8yPDF9NcNlcg0z_hkgfe-1" vertex="1" connectable="0">
          <mxGeometry x="360" y="160" width="780" height="770" as="geometry" />
        </mxCell>
        <mxCell id="8yPDF9NcNlcg0z_hkgfe-27" value="Usuarios" style="rounded=0;whiteSpace=wrap;html=1;verticalAlign=top;spacingTop=10;fillColor=light-dark(#fef7e1, #281d00);strokeColor=#d6b656;fontStyle=1;gradientColor=light-dark(#feebb4, #543300);" parent="8yPDF9NcNlcg0z_hkgfe-26" vertex="1">
          <mxGeometry width="520" height="120" as="geometry" />
        </mxCell>
        <mxCell id="8yPDF9NcNlcg0z_hkgfe-28" value="" style="verticalLabelPosition=bottom;html=1;verticalAlign=top;align=center;strokeColor=none;fillColor=#00BEF2;shape=mxgraph.azure.user;labelBorderColor=none;" parent="8yPDF9NcNlcg0z_hkgfe-26" vertex="1">
          <mxGeometry x="236.25" y="50" width="47.5" height="50" as="geometry" />
        </mxCell>
        <mxCell id="8yPDF9NcNlcg0z_hkgfe-29" value="" style="verticalLabelPosition=bottom;html=1;verticalAlign=top;align=center;strokeColor=none;fillColor=#00BEF2;shape=mxgraph.azure.user;" parent="8yPDF9NcNlcg0z_hkgfe-26" vertex="1">
          <mxGeometry x="210" y="60" width="37.5" height="40" as="geometry" />
        </mxCell>
        <mxCell id="8yPDF9NcNlcg0z_hkgfe-30" value="" style="verticalLabelPosition=bottom;html=1;verticalAlign=top;align=center;strokeColor=none;fillColor=#00BEF2;shape=mxgraph.azure.user;" parent="8yPDF9NcNlcg0z_hkgfe-26" vertex="1">
          <mxGeometry x="272.5" y="60" width="37.5" height="40" as="geometry" />
        </mxCell>
        <mxCell id="8yPDF9NcNlcg0z_hkgfe-31" style="edgeStyle=orthogonalEdgeStyle;rounded=0;orthogonalLoop=1;jettySize=auto;html=1;entryX=0.75;entryY=1;entryDx=0;entryDy=0;exitX=0.75;exitY=0;exitDx=0;exitDy=0;strokeWidth=2;endArrow=open;endFill=0;startArrow=open;startFill=0;" parent="8yPDF9NcNlcg0z_hkgfe-1" source="8yPDF9NcNlcg0z_hkgfe-34" edge="1">
          <mxGeometry relative="1" as="geometry">
            <mxPoint x="760" y="730" as="sourcePoint" />
            <mxPoint x="750" y="439.9999999999998" as="targetPoint" />
          </mxGeometry>
        </mxCell>
        <mxCell id="8yPDF9NcNlcg0z_hkgfe-32" style="edgeStyle=orthogonalEdgeStyle;rounded=0;orthogonalLoop=1;jettySize=auto;html=1;exitX=0.25;exitY=1;exitDx=0;exitDy=0;strokeWidth=2;endArrow=open;endFill=0;entryX=0.25;entryY=0;entryDx=0;entryDy=0;startArrow=open;startFill=0;" parent="8yPDF9NcNlcg0z_hkgfe-1" target="8yPDF9NcNlcg0z_hkgfe-34" edge="1">
          <mxGeometry relative="1" as="geometry">
            <mxPoint x="490" y="439.9999999999998" as="sourcePoint" />
            <mxPoint x="490" y="520" as="targetPoint" />
          </mxGeometry>
        </mxCell>
        <mxCell id="8yPDF9NcNlcg0z_hkgfe-33" value="" style="group" parent="8yPDF9NcNlcg0z_hkgfe-1" vertex="1" connectable="0">
          <mxGeometry x="360" y="480" width="892" height="610" as="geometry" />
        </mxCell>
        <mxCell id="8yPDF9NcNlcg0z_hkgfe-34" value="" style="rounded=0;whiteSpace=wrap;html=1;fillColor=#ffe6cc;strokeColor=#d79b00;" parent="8yPDF9NcNlcg0z_hkgfe-33" vertex="1">
          <mxGeometry width="520" height="120" as="geometry" />
        </mxCell>
        <mxCell id="8yPDF9NcNlcg0z_hkgfe-35" value="WEB - API Gateway" style="rounded=1;whiteSpace=wrap;html=1;fillColor=#f5f5f5;strokeColor=#666666;fontStyle=1;gradientColor=#b3b3b3;" parent="8yPDF9NcNlcg0z_hkgfe-33" vertex="1">
          <mxGeometry x="40" y="20" width="440" height="30" as="geometry" />
        </mxCell>
        <mxCell id="8yPDF9NcNlcg0z_hkgfe-36" value="Tunnel Client" style="rounded=1;whiteSpace=wrap;html=1;fillColor=#f5f5f5;strokeColor=#666666;fontStyle=1;gradientColor=#b3b3b3;" parent="8yPDF9NcNlcg0z_hkgfe-33" vertex="1">
          <mxGeometry x="280" y="65" width="200" height="30" as="geometry" />
        </mxCell>
        <mxCell id="8yPDF9NcNlcg0z_hkgfe-37" value="Proxy Reverse" style="rounded=1;whiteSpace=wrap;html=1;fillColor=#f5f5f5;strokeColor=#666666;fontStyle=1;gradientColor=#b3b3b3;" parent="8yPDF9NcNlcg0z_hkgfe-33" vertex="1">
          <mxGeometry x="40" y="65" width="200" height="30" as="geometry" />
        </mxCell>
        <mxCell id="8yPDF9NcNlcg0z_hkgfe-38" value="Comunicaciones" style="rounded=1;whiteSpace=wrap;html=1;fillColor=#f5f5f5;strokeColor=#666666;fontStyle=1;rotation=90;fontColor=#333333;" parent="8yPDF9NcNlcg0z_hkgfe-1" vertex="1">
          <mxGeometry x="710" y="584.8199999999999" width="480" height="30" as="geometry" />
        </mxCell>
        <mxCell id="8yPDF9NcNlcg0z_hkgfe-39" value="" style="shape=image;verticalLabelPosition=bottom;labelBackgroundColor=default;verticalAlign=top;aspect=fixed;imageAspect=0;image=https://www.simplilearn.com/ice9/free_resources_article_thumb/ASP.NET_logo.jpg;" parent="8yPDF9NcNlcg0z_hkgfe-1" vertex="1">
          <mxGeometry x="46.41" y="352.75" width="64.66" height="55" as="geometry" />
        </mxCell>
        <mxCell id="8yPDF9NcNlcg0z_hkgfe-40" value="" style="shape=image;verticalLabelPosition=bottom;labelBackgroundColor=default;verticalAlign=top;aspect=fixed;imageAspect=0;image=https://reactor.fr/wp-content/uploads/2020/01/1200px-.NET_Core_Logo.svg_.png;" parent="8yPDF9NcNlcg0z_hkgfe-1" vertex="1">
          <mxGeometry x="176.41" y="357.25" width="40" height="40" as="geometry" />
        </mxCell>
        <mxCell id="8yPDF9NcNlcg0z_hkgfe-41" value="" style="shape=image;verticalLabelPosition=bottom;labelBackgroundColor=default;verticalAlign=top;aspect=fixed;imageAspect=0;image=https://logospng.org/download/android/logo-android-4096.png;" parent="8yPDF9NcNlcg0z_hkgfe-1" vertex="1">
          <mxGeometry x="117.41" y="352.25" width="50" height="50" as="geometry" />
        </mxCell>
        <mxCell id="8yPDF9NcNlcg0z_hkgfe-43" value="" style="shape=image;verticalLabelPosition=bottom;labelBackgroundColor=default;verticalAlign=top;aspect=fixed;imageAspect=0;image=https://www.taskscape.com/img/netmaui-logo.png;" parent="8yPDF9NcNlcg0z_hkgfe-1" vertex="1">
          <mxGeometry x="273.6" y="352.25" width="50" height="50" as="geometry" />
        </mxCell>
        <mxCell id="8yPDF9NcNlcg0z_hkgfe-44" value="" style="shape=image;verticalLabelPosition=bottom;labelBackgroundColor=default;verticalAlign=top;aspect=fixed;imageAspect=0;image=https://www.ideematic.com/wp-content/uploads/2018/09/logo-xamarin-300x300.png;" parent="8yPDF9NcNlcg0z_hkgfe-1" vertex="1">
          <mxGeometry x="226.41" y="354.75" width="45" height="45" as="geometry" />
        </mxCell>
        <mxCell id="8yPDF9NcNlcg0z_hkgfe-47" value="" style="shape=image;verticalLabelPosition=bottom;labelBackgroundColor=default;verticalAlign=top;aspect=fixed;imageAspect=0;image=https://www.artofdata.com/wp-content/uploads/2019/06/signalr-logo.png;" parent="8yPDF9NcNlcg0z_hkgfe-1" vertex="1">
          <mxGeometry x="264.38" y="675" width="52.81" height="50" as="geometry" />
        </mxCell>
        <mxCell id="8yPDF9NcNlcg0z_hkgfe-48" value="" style="shape=image;verticalLabelPosition=bottom;labelBackgroundColor=default;verticalAlign=top;aspect=fixed;imageAspect=0;image=https://reactor.fr/wp-content/uploads/2020/01/1200px-.NET_Core_Logo.svg_.png;" parent="8yPDF9NcNlcg0z_hkgfe-1" vertex="1">
          <mxGeometry x="220" y="680" width="40" height="40" as="geometry" />
        </mxCell>
        <mxCell id="8yPDF9NcNlcg0z_hkgfe-50" value="" style="shape=image;verticalLabelPosition=bottom;labelBackgroundColor=default;verticalAlign=top;aspect=fixed;imageAspect=0;image=https://image.opencart.com/original/60e85b27c7220.jpg;" parent="8yPDF9NcNlcg0z_hkgfe-1" vertex="1">
          <mxGeometry x="158" y="673" width="52" height="52" as="geometry" />
        </mxCell>
        <mxCell id="8yPDF9NcNlcg0z_hkgfe-51" value="" style="shape=image;verticalLabelPosition=bottom;labelBackgroundColor=default;verticalAlign=top;aspect=fixed;imageAspect=0;image=https://miro.medium.com/v2/resize:fit:400/1*zaeD78J_lNicIUootxqenA.png;" parent="8yPDF9NcNlcg0z_hkgfe-1" vertex="1">
          <mxGeometry x="210" y="806.85" width="120" height="66.3" as="geometry" />
        </mxCell>
        <mxCell id="8yPDF9NcNlcg0z_hkgfe-52" value="" style="shape=image;verticalLabelPosition=bottom;labelBackgroundColor=default;verticalAlign=top;aspect=fixed;imageAspect=0;image=https://static-00.iconduck.com/assets.00/sql-database-sql-azure-icon-976x1024-eobwqz2q.png;" parent="8yPDF9NcNlcg0z_hkgfe-1" vertex="1">
          <mxGeometry x="156.64" y="810.25" width="56.71" height="59.5" as="geometry" />
        </mxCell>
        <mxCell id="8yPDF9NcNlcg0z_hkgfe-53" value="" style="rounded=0;whiteSpace=wrap;html=1;verticalAlign=top;spacingTop=10;fillColor=light-dark(#fef7e1, #281d00);strokeColor=#d6b656;fontStyle=1;gradientColor=light-dark(#feebb4, #543300);" parent="8yPDF9NcNlcg0z_hkgfe-1" vertex="1">
          <mxGeometry x="360" y="320" width="520" height="120" as="geometry" />
        </mxCell>
        <mxCell id="8yPDF9NcNlcg0z_hkgfe-54" value="Componentes de interfaz de usuario" style="rounded=1;whiteSpace=wrap;html=1;fillColor=light-dark(#fef9ec, #281d00);strokeColor=#d6b656;fontStyle=1" parent="8yPDF9NcNlcg0z_hkgfe-1" vertex="1">
          <mxGeometry x="400" y="340" width="440" height="30" as="geometry" />
        </mxCell>
        <mxCell id="8yPDF9NcNlcg0z_hkgfe-55" value="Componentes de proceso de interfaz" style="rounded=1;whiteSpace=wrap;html=1;fillColor=light-dark(#fef9ec, #281d00);strokeColor=#d6b656;fontStyle=1" parent="8yPDF9NcNlcg0z_hkgfe-1" vertex="1">
          <mxGeometry x="400" y="390" width="440" height="30" as="geometry" />
        </mxCell>
        <mxCell id="8yPDF9NcNlcg0z_hkgfe-56" value="Frontend" style="rounded=1;whiteSpace=wrap;html=1;fillColor=#f5f5f5;strokeColor=#666666;fontStyle=1;rotation=90;fontColor=#333333;" parent="8yPDF9NcNlcg0z_hkgfe-1" vertex="1">
          <mxGeometry x="-121.15" y="280.53" width="282.81" height="40" as="geometry" />
        </mxCell>
        <mxCell id="8yPDF9NcNlcg0z_hkgfe-57" value="Backend" style="rounded=1;whiteSpace=wrap;html=1;fillColor=#f5f5f5;strokeColor=#666666;fontStyle=1;rotation=90;fontColor=#333333;" parent="8yPDF9NcNlcg0z_hkgfe-1" vertex="1">
          <mxGeometry x="-119.53" y="598.94" width="279.57" height="40" as="geometry" />
        </mxCell>
        <mxCell id="8yPDF9NcNlcg0z_hkgfe-58" style="edgeStyle=orthogonalEdgeStyle;rounded=0;orthogonalLoop=1;jettySize=auto;html=1;entryX=0.5;entryY=1;entryDx=0;entryDy=0;strokeWidth=2;endArrow=open;endFill=0;startArrow=open;startFill=0;exitX=0.5;exitY=0;exitDx=0;exitDy=0;" parent="8yPDF9NcNlcg0z_hkgfe-1" source="8yPDF9NcNlcg0z_hkgfe-64" target="8yPDF9NcNlcg0z_hkgfe-34" edge="1">
          <mxGeometry relative="1" as="geometry">
            <mxPoint x="620" y="640" as="sourcePoint" />
            <mxPoint x="790" y="890" as="targetPoint" />
          </mxGeometry>
        </mxCell>
        <mxCell id="8yPDF9NcNlcg0z_hkgfe-59" value="Data" style="rounded=1;whiteSpace=wrap;html=1;fillColor=#f5f5f5;strokeColor=#666666;fontStyle=1;rotation=90;fontColor=#333333;" parent="8yPDF9NcNlcg0z_hkgfe-1" vertex="1">
          <mxGeometry x="-119.59" y="919.43" width="280.16" height="40" as="geometry" />
        </mxCell>
        <mxCell id="8yPDF9NcNlcg0z_hkgfe-60" value="" style="shape=image;verticalLabelPosition=bottom;labelBackgroundColor=default;verticalAlign=top;aspect=fixed;imageAspect=0;image=https://static-00.iconduck.com/assets.00/sql-database-generic-icon-380x512-ez505zus.png;" parent="8yPDF9NcNlcg0z_hkgfe-1" vertex="1">
          <mxGeometry x="278.83" y="950" width="41.17" height="55.47" as="geometry" />
        </mxCell>
        <mxCell id="8yPDF9NcNlcg0z_hkgfe-61" value="" style="shape=image;verticalLabelPosition=bottom;labelBackgroundColor=default;verticalAlign=top;aspect=fixed;imageAspect=0;image=https://startupcredits.org/wp-content/uploads/2023/12/MongoDB-Startup-Credits-logo.png;" parent="8yPDF9NcNlcg0z_hkgfe-1" vertex="1">
          <mxGeometry x="213.35" y="950.47" width="55" height="55" as="geometry" />
        </mxCell>
        <mxCell id="8yPDF9NcNlcg0z_hkgfe-62" value="" style="shape=image;verticalLabelPosition=bottom;labelBackgroundColor=default;verticalAlign=top;aspect=fixed;imageAspect=0;image=https://cdn-icons-png.flaticon.com/512/6378/6378011.png;" parent="8yPDF9NcNlcg0z_hkgfe-1" vertex="1">
          <mxGeometry x="144.32" y="947.73" width="60" height="60" as="geometry" />
        </mxCell>
        <mxCell id="8yPDF9NcNlcg0z_hkgfe-63" value="" style="shape=image;verticalLabelPosition=bottom;labelBackgroundColor=default;verticalAlign=top;aspect=fixed;imageAspect=0;image=https://cdn-icons-png.flaticon.com/512/337/337959.png;" parent="8yPDF9NcNlcg0z_hkgfe-1" vertex="1">
          <mxGeometry x="80.1" y="947.73" width="55.53" height="55.53" as="geometry" />
        </mxCell>
        <mxCell id="8yPDF9NcNlcg0z_hkgfe-64" value="" style="rounded=0;whiteSpace=wrap;html=1;fillColor=#f5f5f5;strokeColor=#666666;gradientColor=#b3b3b3;" parent="8yPDF9NcNlcg0z_hkgfe-1" vertex="1">
          <mxGeometry x="360" y="638.94" width="520" height="120" as="geometry" />
        </mxCell>
        <mxCell id="8yPDF9NcNlcg0z_hkgfe-65" value="Flujos de negocio" style="rounded=1;whiteSpace=wrap;html=1;fillColor=#f5f5f5;strokeColor=#666666;fontStyle=1;gradientColor=#b3b3b3;" parent="8yPDF9NcNlcg0z_hkgfe-1" vertex="1">
          <mxGeometry x="400" y="698.94" width="130" height="40" as="geometry" />
        </mxCell>
        <mxCell id="8yPDF9NcNlcg0z_hkgfe-66" value="Entidades de negocio" style="rounded=1;whiteSpace=wrap;html=1;fillColor=#f5f5f5;strokeColor=#666666;fontStyle=1;gradientColor=#b3b3b3;" parent="8yPDF9NcNlcg0z_hkgfe-1" vertex="1">
          <mxGeometry x="720" y="698.94" width="120" height="40" as="geometry" />
        </mxCell>
        <mxCell id="8yPDF9NcNlcg0z_hkgfe-67" value="Interfaces de servicios" style="rounded=1;whiteSpace=wrap;html=1;fillColor=#f5f5f5;strokeColor=#666666;fontStyle=1;gradientColor=#b3b3b3;" parent="8yPDF9NcNlcg0z_hkgfe-1" vertex="1">
          <mxGeometry x="400" y="658.94" width="440" height="30" as="geometry" />
        </mxCell>
        <mxCell id="8yPDF9NcNlcg0z_hkgfe-68" value="Componentes de negocio" style="rounded=1;whiteSpace=wrap;html=1;fillColor=#f5f5f5;strokeColor=#666666;fontStyle=1;gradientColor=#b3b3b3;" parent="8yPDF9NcNlcg0z_hkgfe-1" vertex="1">
          <mxGeometry x="560" y="698.94" width="130" height="40" as="geometry" />
        </mxCell>
        <mxCell id="99G4xc7k-wb7q14vAdcf-0" value="" style="shape=image;verticalLabelPosition=bottom;labelBackgroundColor=default;verticalAlign=top;aspect=fixed;imageAspect=0;image=https://mms.businesswire.com/media/20240308676044/en/738100/22/cf-logo-h-rgb.jpg;" vertex="1" parent="8yPDF9NcNlcg0z_hkgfe-1">
          <mxGeometry x="80.1" y="480" width="240" height="120" as="geometry" />
        </mxCell>
      </root>
    </mxGraphModel>
  </diagram>
</mxfile>
